<svg xmlns="http://www.w3.org/2000/svg" xmlns:xlink="http://www.w3.org/1999/xlink" width="151.292" height="44.827" viewBox="0 0 151.292 44.827">
  <defs>
    <linearGradient id="linear-gradient" x1="0.915" y1="6.614" x2="-0.383" y2="5.945" gradientUnits="objectBoundingBox">
      <stop offset="0" stop-color="#00a0ff"/>
      <stop offset="0.007" stop-color="#00a1ff"/>
      <stop offset="0.26" stop-color="#00beff"/>
      <stop offset="0.512" stop-color="#00d2ff"/>
      <stop offset="0.76" stop-color="#00dfff"/>
      <stop offset="1" stop-color="#00e3ff"/>
    </linearGradient>
    <linearGradient id="linear-gradient-2" x1="1.076" y1="17.098" x2="-1.305" y2="17.098" gradientUnits="objectBoundingBox">
      <stop offset="0" stop-color="#ffe000"/>
      <stop offset="0.409" stop-color="#ffbd00"/>
      <stop offset="0.775" stop-color="orange"/>
      <stop offset="1" stop-color="#ff9c00"/>
    </linearGradient>
    <linearGradient id="linear-gradient-3" x1="0.862" y1="10.863" x2="-0.501" y2="9.093" gradientUnits="objectBoundingBox">
      <stop offset="0" stop-color="#ff3a44"/>
      <stop offset="1" stop-color="#c31162"/>
    </linearGradient>
    <linearGradient id="linear-gradient-4" x1="-0.188" y1="13.583" x2="0.421" y2="12.793" gradientUnits="objectBoundingBox">
      <stop offset="0" stop-color="#32a071"/>
      <stop offset="0.068" stop-color="#2da771"/>
      <stop offset="0.476" stop-color="#15cf74"/>
      <stop offset="0.801" stop-color="#06e775"/>
      <stop offset="1" stop-color="#00f076"/>
    </linearGradient>
  </defs>
  <g id="Group_219" data-name="Group 219" transform="translate(0 0)">
    <rect id="Rectangle_29" data-name="Rectangle 29" width="149.454" height="43.203" rx="5" transform="translate(0.919 0.812)"/>
    <g id="Group_215" data-name="Group 215" transform="translate(0 0)">
      <g id="Group_214" data-name="Group 214">
        <path id="Path_740" data-name="Path 740" d="M155.689,10.9A4.712,4.712,0,0,1,160.4,15.6V49.224a4.712,4.712,0,0,1-4.707,4.707H15.6A4.712,4.712,0,0,1,10.9,49.224V15.6A4.712,4.712,0,0,1,15.6,10.9H155.689m0-.9H15.6A5.62,5.62,0,0,0,10,15.6V49.224a5.62,5.62,0,0,0,5.6,5.6H155.689a5.62,5.62,0,0,0,5.6-5.6V15.6a5.62,5.62,0,0,0-5.6-5.6Z" transform="translate(-10 -10)" fill="#a6a6a6"/>
      </g>
    </g>
    <g id="Group_216" data-name="Group 216" transform="translate(46.343 7.695)">
      <path id="Path_741" data-name="Path 741" d="M58.15,20.651a3.035,3.035,0,0,1-.835,2.245,3.259,3.259,0,0,1-2.47,1,3.464,3.464,0,0,1-3.493-3.512,3.464,3.464,0,0,1,3.493-3.512,3.481,3.481,0,0,1,1.381.281,2.766,2.766,0,0,1,1.051.752l-.591.591a2.274,2.274,0,0,0-1.841-.8,2.6,2.6,0,0,0-2.611,2.685,2.645,2.645,0,0,0,4.489,1.935,2.12,2.12,0,0,0,.564-1.363H54.845v-.807H58.1A2.866,2.866,0,0,1,58.15,20.651Z" transform="translate(-51.352 -16.866)" fill="#fff" stroke="#fff" stroke-width="0.2"/>
      <path id="Path_742" data-name="Path 742" d="M62.451,17.826H59.388v2.133h2.761v.807H59.388V22.9h3.063v.826H58.525V17h3.926Z" transform="translate(-50.486 -16.85)" fill="#fff" stroke="#fff" stroke-width="0.2"/>
      <path id="Path_743" data-name="Path 743" d="M65.574,23.724h-.865v-5.9H62.832V17h4.621v.826H65.574Z" transform="translate(-49.967 -16.85)" fill="#fff" stroke="#fff" stroke-width="0.2"/>
      <path id="Path_744" data-name="Path 744" d="M69.938,23.724V17H70.8v6.724Z" transform="translate(-49.109 -16.85)" fill="#fff" stroke="#fff" stroke-width="0.2"/>
      <path id="Path_745" data-name="Path 745" d="M74.423,23.724h-.864v-5.9H71.681V17H76.3v.826H74.423Z" transform="translate(-48.899 -16.85)" fill="#fff" stroke="#fff" stroke-width="0.2"/>
      <path id="Path_746" data-name="Path 746" d="M84.247,22.872a3.492,3.492,0,0,1-4.93,0,3.633,3.633,0,0,1,0-4.987,3.481,3.481,0,0,1,4.925,0,3.622,3.622,0,0,1,0,4.983Zm-4.292-.564a2.587,2.587,0,0,0,3.653,0,2.865,2.865,0,0,0,0-3.86,2.587,2.587,0,0,0-3.653,0,2.868,2.868,0,0,0,0,3.86Z" transform="translate(-48.097 -16.866)" fill="#fff" stroke="#fff" stroke-width="0.2"/>
      <path id="Path_747" data-name="Path 747" d="M85.575,23.724V17h1.052L89.9,22.23h.037l-.037-1.3V17h.864v6.724h-.9l-3.419-5.485H86.4l.037,1.3v4.188Z" transform="translate(-47.222 -16.85)" fill="#fff" stroke="#fff" stroke-width="0.2"/>
    </g>
    <path id="Path_748" data-name="Path 748" d="M81.406,32.32a4.766,4.766,0,1,0,4.784,4.766A4.7,4.7,0,0,0,81.406,32.32Zm0,7.654a2.9,2.9,0,1,1,2.69-2.888A2.757,2.757,0,0,1,81.406,39.974ZM70.969,32.32a4.766,4.766,0,1,0,4.784,4.766A4.7,4.7,0,0,0,70.969,32.32Zm0,7.654a2.9,2.9,0,1,1,2.69-2.888A2.757,2.757,0,0,1,70.969,39.974ZM58.553,33.782V35.8h4.838a4.22,4.22,0,0,1-1.1,2.545,4.954,4.954,0,0,1-3.737,1.48,5.38,5.38,0,0,1,0-10.76A5.155,5.155,0,0,1,62.2,30.514l1.427-1.427a7.055,7.055,0,0,0-5.073-2.041,7.4,7.4,0,1,0,0,14.805,6.764,6.764,0,0,0,5.163-2.077,6.681,6.681,0,0,0,1.752-4.73,6.533,6.533,0,0,0-.109-1.263Zm50.776,1.57a4.43,4.43,0,0,0-4.08-3.033,4.529,4.529,0,0,0-4.5,4.766,4.664,4.664,0,0,0,4.73,4.766,4.74,4.74,0,0,0,3.972-2.112l-1.625-1.084a2.723,2.723,0,0,1-2.347,1.318,2.426,2.426,0,0,1-2.312-1.443l6.373-2.637Zm-6.5,1.589a2.615,2.615,0,0,1,2.491-2.78,1.844,1.844,0,0,1,1.77,1.011Zm-5.181,4.622h2.093V27.552H97.648Zm-3.432-8.179h-.072a3.3,3.3,0,0,0-2.509-1.065,4.771,4.771,0,0,0,0,9.533,3.247,3.247,0,0,0,2.509-1.084h.072v.687c0,1.823-.974,2.8-2.545,2.8a2.638,2.638,0,0,1-2.4-1.7l-1.823.759a4.542,4.542,0,0,0,4.225,2.816c2.455,0,4.532-1.445,4.532-4.965V32.608H94.216Zm-2.4,6.59a2.9,2.9,0,0,1,0-5.777A2.686,2.686,0,0,1,94.361,37.1,2.663,2.663,0,0,1,91.816,39.974Zm27.323-12.421h-5.011v14.01h2.09V36.256h2.92a4.358,4.358,0,1,0,0-8.7Zm.054,6.752h-2.974V29.5h2.974a2.4,2.4,0,1,1,0,4.8Zm12.924-2.012a3.928,3.928,0,0,0-3.732,2.144l1.857.776a1.981,1.981,0,0,1,1.911-1.028,2.013,2.013,0,0,1,2.2,1.8v.143a4.626,4.626,0,0,0-2.181-.54c-2,0-4.038,1.1-4.038,3.154a3.237,3.237,0,0,0,3.479,3.083,2.951,2.951,0,0,0,2.668-1.371h.072V41.54h2.018V36.168C136.37,33.681,134.514,32.294,132.117,32.294Zm-.252,7.678c-.686,0-1.641-.342-1.641-1.189,0-1.081,1.189-1.5,2.217-1.5a3.731,3.731,0,0,1,1.911.468A2.535,2.535,0,0,1,131.864,39.972ZM143.724,32.6l-2.4,6.074h-.072L138.767,32.6h-2.253l3.731,8.489-2.127,4.723H140.3l5.75-13.212Zm-18.835,8.963h2.091V27.554h-2.091Z" transform="translate(-5.047 -7.943)" fill="#fff"/>
    <g id="Group_218" data-name="Group 218" transform="translate(11.177 8.002)">
      <path id="Path_749" data-name="Path 749" d="M20.491,17.547a2.249,2.249,0,0,0-.518,1.575V43.906a2.247,2.247,0,0,0,.518,1.575l.083.081L34.458,31.678V31.35L20.574,17.465Z" transform="translate(-19.973 -17.101)" fill="url(#linear-gradient)"/>
      <path id="Path_750" data-name="Path 750" d="M37.526,35.311,32.9,30.681v-.327l4.63-4.63.1.061L43.115,28.9c1.566.89,1.566,2.346,0,3.235l-5.484,3.116Z" transform="translate(-18.413 -16.105)" fill="url(#linear-gradient-2)"/>
      <path id="Path_751" data-name="Path 751" d="M39.136,34.735,34.4,30,20.435,43.968a1.824,1.824,0,0,0,2.33.068l16.371-9.3" transform="translate(-19.917 -15.588)" fill="url(#linear-gradient-3)"/>
      <path id="Path_752" data-name="Path 752" d="M39.136,26.819l-16.371-9.3a1.824,1.824,0,0,0-2.33.068L34.4,31.553Z" transform="translate(-19.917 -17.14)" fill="url(#linear-gradient-4)"/>
      <g id="Group_217" data-name="Group 217" transform="translate(0 19.042)">
        <path id="Path_753" data-name="Path 753" d="M39.032,34.132,22.765,43.374a1.866,1.866,0,0,1-2.246.012h0l-.084.083h0l.083.082h0a1.866,1.866,0,0,0,2.246-.012l16.371-9.3Z" transform="translate(-19.917 -34.132)" opacity="0.2"/>
        <path id="Path_754" data-name="Path 754" d="M20.491,42.488a2.247,2.247,0,0,1-.518-1.575v.165a2.244,2.244,0,0,0,.518,1.573l.084-.083Z" transform="translate(-19.973 -33.314)" opacity="0.12"/>
      </g>
      <path id="Path_755" data-name="Path 755" d="M42.617,31.456l-5.588,3.175.1.1,5.483-3.115A1.967,1.967,0,0,0,43.791,30h0A2.085,2.085,0,0,1,42.617,31.456Z" transform="translate(-17.915 -15.588)" opacity="0.12"/>
      <path id="Path_756" data-name="Path 756" d="M22.821,17.681,44.675,30.1a2.085,2.085,0,0,1,1.174,1.455h0a1.964,1.964,0,0,0-1.174-1.618L22.821,17.518c-1.567-.89-2.848-.15-2.848,1.643v.165C19.973,17.531,21.254,16.791,22.821,17.681Z" transform="translate(-19.973 -17.14)" fill="#fff" opacity="0.25"/>
    </g>
  </g>
</svg>
