<svg xmlns="http://www.w3.org/2000/svg" xmlns:xlink="http://www.w3.org/1999/xlink" width="443.795" height="66" viewBox="0 0 443.795 66">
  <defs>
    <clipPath id="clip-path">
      <rect id="Rectangle_61" data-name="Rectangle 61" width="121.108" height="62.031" fill="#fff" stroke="#707070" stroke-width="1"/>
    </clipPath>
    <clipPath id="clip-path-2">
      <rect id="Rectangle_165" data-name="Rectangle 165" width="136.862" height="62.031" fill="#fff" stroke="#707070" stroke-width="1"/>
    </clipPath>
    <clipPath id="clip-path-3">
      <rect id="Rectangle_166" data-name="Rectangle 166" width="147" height="66" transform="translate(0 0)" fill="#fff" stroke="#707070" stroke-width="1"/>
    </clipPath>
  </defs>
  <g id="Group_88" data-name="Group 88" transform="translate(0.538 2.363)">
    <g id="Group_71" data-name="Group 71" transform="translate(0 5.201)">
      <path id="Path_13" data-name="Path 13" d="M-2195.007,4223.91s17.965,11.46,30.64,10.468,10.022-27.963,20.432-27.963,9.338,51.985,20.131,51.985,11.327-49.109,22.785-49.109,11.635,36.722,21.9,36.722,8.659-41.589,16.591-41.589,5.267,47.232,17.7,48.225,18.442-50.656,23.67-46.234" transform="translate(2195.007 -4204.053)" fill="none" stroke="#e8451e" stroke-width="2"/>
      <path id="Path_21" data-name="Path 21" d="M-2062.867,4258.142a2.679,2.679,0,0,1-1.5-.472,4.758,4.758,0,0,1-1.227-1.26,15.858,15.858,0,0,1-1.9-4.29,117.273,117.273,0,0,1-2.8-13.073,117.262,117.262,0,0,0-3.439-15.479,17.51,17.51,0,0,0-2.5-5.145,4.08,4.08,0,0,0-3.225-1.87,4.349,4.349,0,0,0-3.077,1.392,13.67,13.67,0,0,0-2.595,3.857,84.536,84.536,0,0,0-4.248,12.091,86.1,86.1,0,0,1-4.689,13.154,15.473,15.473,0,0,1-3.137,4.468,7.027,7.027,0,0,1-1.931,1.294,5.519,5.519,0,0,1-2.222.466,4.452,4.452,0,0,1-2.239-.618,7.234,7.234,0,0,1-1.923-1.688,21.281,21.281,0,0,1-3.141-5.812c-1.856-4.743-3.368-11.114-4.83-17.274a140.61,140.61,0,0,0-4.574-16.489,19.916,19.916,0,0,0-2.806-5.317,6.06,6.06,0,0,0-1.578-1.429,3.258,3.258,0,0,0-1.693-.484c-2.26,0-4.2,2.616-5.924,8-1.58,4.924-2.8,11.593-3.984,18.043a159.1,159.1,0,0,1-3.891,17.7,22.016,22.016,0,0,1-2.644,5.9,6.577,6.577,0,0,1-1.675,1.718,3.6,3.6,0,0,1-2.013.636,5.675,5.675,0,0,1-3.445-1.141,9.614,9.614,0,0,1-2.493-2.951,46.812,46.812,0,0,1-3.5-8.895,49.255,49.255,0,0,0-4.023-10.021,11.815,11.815,0,0,0-2.958-3.435,7.535,7.535,0,0,0-4.044-1.523,30.166,30.166,0,0,0-10.009,1.206,66.42,66.42,0,0,0-9.883,3.625,93.089,93.089,0,0,0-10.52,5.581l-.4-.626a93.829,93.829,0,0,1,10.614-5.63,67,67,0,0,1,9.994-3.666,30.859,30.859,0,0,1,10.26-1.229,8.548,8.548,0,0,1,2.4.534,8.5,8.5,0,0,1,2.037,1.134,12.529,12.529,0,0,1,3.148,3.645,49.738,49.738,0,0,1,4.094,10.178,46.279,46.279,0,0,0,3.431,8.747,8.9,8.9,0,0,0,2.294,2.729,4.883,4.883,0,0,0,3,.995c2.132,0,3.972-2.529,5.625-7.733a158.485,158.485,0,0,0,3.868-17.6c1.187-6.473,2.413-13.166,4.008-18.136a22.447,22.447,0,0,1,2.764-6.085,6.808,6.808,0,0,1,1.757-1.773,3.8,3.8,0,0,1,2.109-.655,4.038,4.038,0,0,1,2.071.587,6.8,6.8,0,0,1,1.778,1.6,20.6,20.6,0,0,1,2.922,5.518,140.972,140.972,0,0,1,4.6,16.584c1.456,6.135,2.962,12.48,4.8,17.175a20.644,20.644,0,0,0,3.021,5.609,6.544,6.544,0,0,0,1.722,1.518,3.718,3.718,0,0,0,1.869.518,5.258,5.258,0,0,0,3.65-1.563,14.773,14.773,0,0,0,2.977-4.256,85.7,85.7,0,0,0,4.642-13.033,84.972,84.972,0,0,1,4.292-12.2,14.381,14.381,0,0,1,2.746-4.064,6.11,6.11,0,0,1,1.673-1.176,4.557,4.557,0,0,1,1.92-.425,4.065,4.065,0,0,1,2.085.579,6.275,6.275,0,0,1,1.724,1.576,18.2,18.2,0,0,1,2.618,5.365,117.654,117.654,0,0,1,3.466,15.585,116.788,116.788,0,0,0,2.776,12.983c1.153,3.7,2.435,5.5,3.92,5.5,1.4,0,2.6-1.874,3.651-5.728a135.764,135.764,0,0,0,2.547-13.823c1.012-6.638,2.059-13.5,3.74-18.921a23.327,23.327,0,0,1,3.092-6.773,8.368,8.368,0,0,1,2.086-2.077,5.333,5.333,0,0,1,2.551-.9,5.089,5.089,0,0,1,2.82.621,9.268,9.268,0,0,1,2.529,2.084,29.074,29.074,0,0,1,4.39,7.363c2.682,5.982,4.952,13.736,6.955,20.577,1.218,4.16,2.368,8.089,3.43,10.97a23.56,23.56,0,0,0,1.525,3.465c.586,1.02,1.007,1.323,1.258,1.4a.544.544,0,0,0,.554-.157l.479.566a1.285,1.285,0,0,1-1.247.3c-.56-.168-1.112-.738-1.688-1.74a24.256,24.256,0,0,1-1.578-3.578c-1.07-2.9-2.224-6.846-3.446-11.018-2-6.817-4.258-14.545-6.919-20.482a41.866,41.866,0,0,0-2.063-4.058,20.055,20.055,0,0,0-2.2-3.117,8.552,8.552,0,0,0-2.321-1.92,4.365,4.365,0,0,0-2.413-.537c-2.908.232-5.224,3.252-7.08,9.234-1.665,5.363-2.708,12.2-3.716,18.812a136.176,136.176,0,0,1-2.565,13.907,17.049,17.049,0,0,1-1.76,4.471,4.674,4.674,0,0,1-1.156,1.308A2.431,2.431,0,0,1-2062.867,4258.142Z" transform="translate(2202.765 -4203.423)" fill="#1e1e1c"/>
    </g>
    <g id="Mask_Group_4" data-name="Mask Group 4" transform="translate(173.073 -0.036)" clip-path="url(#clip-path)">
      <g id="Group_87" data-name="Group 87" transform="translate(-49.231 5.237)">
        <path id="Path_13-2" data-name="Path 13" d="M-2195.007,4223.91s17.965,11.46,30.64,10.468,10.022-27.963,20.432-27.963,9.338,51.985,20.131,51.985,11.327-49.109,22.785-49.109,11.635,36.722,21.9,36.722,8.659-41.589,16.591-41.589,5.267,47.232,17.7,48.225,18.442-50.656,23.67-46.234" transform="translate(2195.007 -4204.053)" fill="none" stroke="#e8451e" stroke-width="2"/>
        <path id="Path_21-2" data-name="Path 21" d="M-2062.1,4258.142a2.679,2.679,0,0,1-1.5-.472,4.758,4.758,0,0,1-1.227-1.26,15.858,15.858,0,0,1-1.9-4.29,117.273,117.273,0,0,1-2.8-13.073,117.262,117.262,0,0,0-3.439-15.479,17.51,17.51,0,0,0-2.5-5.145,4.08,4.08,0,0,0-3.225-1.87,4.349,4.349,0,0,0-3.077,1.392,13.67,13.67,0,0,0-2.595,3.857,84.536,84.536,0,0,0-4.248,12.091,86.1,86.1,0,0,1-4.689,13.154,15.473,15.473,0,0,1-3.137,4.468,7.027,7.027,0,0,1-1.931,1.294,5.519,5.519,0,0,1-2.222.466,4.452,4.452,0,0,1-2.239-.618,7.234,7.234,0,0,1-1.923-1.688,21.281,21.281,0,0,1-3.141-5.812c-1.856-4.743-3.368-11.114-4.83-17.274a140.61,140.61,0,0,0-4.574-16.489,19.916,19.916,0,0,0-2.806-5.317,6.06,6.06,0,0,0-1.578-1.429,3.258,3.258,0,0,0-1.693-.484c-2.26,0-4.2,2.616-5.924,8-1.58,4.924-2.8,11.593-3.984,18.043a159.1,159.1,0,0,1-3.891,17.7,21.749,21.749,0,0,1-3.535,6.13,7.615,7.615,0,0,1-1.993,1.749,3.6,3.6,0,0,1-2.013.636c-1.264,0-1.117-.742,0-.742.034,0,.069,0,.409-.033,1.82-.057,4.8-2.844,6.426-7.965a158.485,158.485,0,0,0,3.868-17.6c1.187-6.473,2.413-13.166,4.008-18.136a22.447,22.447,0,0,1,2.764-6.085,6.808,6.808,0,0,1,1.757-1.773,3.8,3.8,0,0,1,2.109-.655,4.038,4.038,0,0,1,2.071.587,6.8,6.8,0,0,1,1.778,1.6,20.6,20.6,0,0,1,2.922,5.518,140.972,140.972,0,0,1,4.6,16.584c1.456,6.135,2.962,12.48,4.8,17.175a20.644,20.644,0,0,0,3.021,5.609,6.544,6.544,0,0,0,1.722,1.518,3.718,3.718,0,0,0,1.869.518,5.258,5.258,0,0,0,3.65-1.563,14.773,14.773,0,0,0,2.977-4.256,85.7,85.7,0,0,0,4.642-13.033,84.972,84.972,0,0,1,4.292-12.2,14.381,14.381,0,0,1,2.746-4.064,6.11,6.11,0,0,1,1.673-1.176,4.557,4.557,0,0,1,1.92-.425,4.065,4.065,0,0,1,2.085.579,6.275,6.275,0,0,1,1.724,1.576,18.2,18.2,0,0,1,2.618,5.365,117.654,117.654,0,0,1,3.466,15.585,116.788,116.788,0,0,0,2.776,12.983c1.153,3.7,2.435,5.5,3.92,5.5,1.4,0,2.6-1.874,3.651-5.728a135.764,135.764,0,0,0,2.547-13.823c1.012-6.638,2.059-13.5,3.74-18.921a23.327,23.327,0,0,1,3.092-6.773,8.37,8.37,0,0,1,2.086-2.077,5.333,5.333,0,0,1,2.551-.9,5.089,5.089,0,0,1,2.82.621,9.268,9.268,0,0,1,2.529,2.084,29.074,29.074,0,0,1,4.39,7.363c2.682,5.982,4.952,13.736,6.955,20.577,1.218,4.16,2.368,8.089,3.43,10.97a23.56,23.56,0,0,0,1.525,3.465c.586,1.02,1.007,1.323,1.258,1.4a.544.544,0,0,0,.554-.157l.479.566a1.285,1.285,0,0,1-1.247.3c-.56-.168-1.112-.738-1.688-1.74a24.256,24.256,0,0,1-1.578-3.578c-1.07-2.9-2.224-6.846-3.446-11.018-2-6.817-4.258-14.545-6.919-20.482a41.866,41.866,0,0,0-2.063-4.058,20.055,20.055,0,0,0-2.2-3.117,8.552,8.552,0,0,0-2.321-1.92,4.365,4.365,0,0,0-2.413-.537c-2.908.232-5.223,3.252-7.08,9.234-1.665,5.363-2.708,12.2-3.716,18.812a136.176,136.176,0,0,1-2.565,13.907,17.049,17.049,0,0,1-1.76,4.471,4.674,4.674,0,0,1-1.156,1.308A2.431,2.431,0,0,1-2062.1,4258.142Z" transform="translate(2201.997 -4203.423)" fill="#1e1e1c"/>
      </g>
    </g>
    <g id="Mask_Group_7" data-name="Mask Group 7" transform="translate(173.097 -0.036)" clip-path="url(#clip-path-2)">
      <g id="Group_6612" data-name="Group 6612" transform="translate(-49.231 5.237)">
        <path id="Path_10107" data-name="Path 10107" d="M-2195.007,4223.91s17.965,11.46,30.64,10.468,10.022-27.963,20.432-27.963,9.338,51.985,20.131,51.985,11.327-49.109,22.785-49.109,11.635,36.722,21.9,36.722,8.659-41.589,16.591-41.589,5.267,47.232,17.7,48.225,18.442-50.656,23.67-46.234" transform="translate(2195.007 -4204.053)" fill="none" stroke="#e8451e" stroke-width="2"/>
        <path id="Path_21-3" data-name="Path 21" d="M-2062.1,4258.142a2.679,2.679,0,0,1-1.5-.472,4.758,4.758,0,0,1-1.227-1.26,15.858,15.858,0,0,1-1.9-4.29,117.273,117.273,0,0,1-2.8-13.073,117.262,117.262,0,0,0-3.439-15.479,17.51,17.51,0,0,0-2.5-5.145,4.08,4.08,0,0,0-3.225-1.87,4.349,4.349,0,0,0-3.077,1.392,13.67,13.67,0,0,0-2.595,3.857,84.536,84.536,0,0,0-4.248,12.091,86.1,86.1,0,0,1-4.689,13.154,15.473,15.473,0,0,1-3.137,4.468,7.027,7.027,0,0,1-1.931,1.294,5.519,5.519,0,0,1-2.222.466,4.452,4.452,0,0,1-2.239-.618,7.234,7.234,0,0,1-1.923-1.688,21.281,21.281,0,0,1-3.141-5.812c-1.856-4.743-3.368-11.114-4.83-17.274a140.61,140.61,0,0,0-4.574-16.489,19.916,19.916,0,0,0-2.806-5.317,6.06,6.06,0,0,0-1.578-1.429,3.258,3.258,0,0,0-1.693-.484c-2.26,0-4.2,2.616-5.924,8-1.58,4.924-2.8,11.593-3.984,18.043a159.1,159.1,0,0,1-3.891,17.7,21.749,21.749,0,0,1-3.535,6.13,7.615,7.615,0,0,1-1.993,1.749,3.6,3.6,0,0,1-2.013.636c-1.264,0-1.117-.742,0-.742.034,0,.069,0,.409-.033,1.82-.057,4.8-2.844,6.426-7.965a158.485,158.485,0,0,0,3.868-17.6c1.187-6.473,2.413-13.166,4.008-18.136a22.447,22.447,0,0,1,2.764-6.085,6.808,6.808,0,0,1,1.757-1.773,3.8,3.8,0,0,1,2.109-.655,4.038,4.038,0,0,1,2.071.587,6.8,6.8,0,0,1,1.778,1.6,20.6,20.6,0,0,1,2.922,5.518,140.972,140.972,0,0,1,4.6,16.584c1.456,6.135,2.962,12.48,4.8,17.175a20.644,20.644,0,0,0,3.021,5.609,6.544,6.544,0,0,0,1.722,1.518,3.718,3.718,0,0,0,1.869.518,5.258,5.258,0,0,0,3.65-1.563,14.773,14.773,0,0,0,2.977-4.256,85.7,85.7,0,0,0,4.642-13.033,84.972,84.972,0,0,1,4.292-12.2,14.381,14.381,0,0,1,2.746-4.064,6.11,6.11,0,0,1,1.673-1.176,4.557,4.557,0,0,1,1.92-.425,4.065,4.065,0,0,1,2.085.579,6.275,6.275,0,0,1,1.724,1.576,18.2,18.2,0,0,1,2.618,5.365,117.654,117.654,0,0,1,3.466,15.585,116.788,116.788,0,0,0,2.776,12.983c1.153,3.7,2.435,5.5,3.92,5.5,1.4,0,2.6-1.874,3.651-5.728a135.764,135.764,0,0,0,2.547-13.823c1.012-6.638,2.059-13.5,3.74-18.921a23.327,23.327,0,0,1,3.092-6.773,8.37,8.37,0,0,1,2.086-2.077,5.333,5.333,0,0,1,2.551-.9,5.089,5.089,0,0,1,2.82.621,9.268,9.268,0,0,1,2.529,2.084,29.074,29.074,0,0,1,4.39,7.363c2.682,5.982,4.952,13.736,6.955,20.577,1.218,4.16,2.368,8.089,3.43,10.97a23.56,23.56,0,0,0,1.525,3.465c.586,1.02,1.007,1.323,1.258,1.4a.544.544,0,0,0,.554-.157l.479.566a1.285,1.285,0,0,1-1.247.3c-.56-.168-1.112-.738-1.688-1.74a24.256,24.256,0,0,1-1.578-3.578c-1.07-2.9-2.224-6.846-3.446-11.018-2-6.817-4.258-14.545-6.919-20.482a41.866,41.866,0,0,0-2.063-4.058,20.055,20.055,0,0,0-2.2-3.117,8.552,8.552,0,0,0-2.321-1.92,4.365,4.365,0,0,0-2.413-.537c-2.908.232-5.223,3.252-7.08,9.234-1.665,5.363-2.708,12.2-3.716,18.812a136.176,136.176,0,0,1-2.565,13.907,17.049,17.049,0,0,1-1.76,4.471,4.674,4.674,0,0,1-1.156,1.308A2.431,2.431,0,0,1-2062.1,4258.142Z" transform="translate(2201.997 -4203.423)" fill="#1e1e1c"/>
      </g>
    </g>
    <g id="Mask_Group_8" data-name="Mask Group 8" transform="translate(296.257 -2.363)" clip-path="url(#clip-path-3)">
      <g id="Group_6613" data-name="Group 6613" transform="translate(0.701 7.564)">
        <path id="Path_13-3" data-name="Path 13" d="M-2036.16,4223.91s-17.965,11.46-30.64,10.468-10.022-27.963-20.431-27.963-9.338,51.985-20.131,51.985-11.327-49.109-22.785-49.109-11.635,36.722-21.9,36.722-8.659-41.589-16.591-41.589-5.267,47.232-17.7,48.225-18.442-50.656-23.67-46.234" transform="translate(2210.007 -4204.053)" fill="none" stroke="#e8451e" stroke-width="2"/>
        <path id="Path_21-4" data-name="Path 21" d="M-2153.938,4258.142a2.68,2.68,0,0,0,1.5-.472,4.758,4.758,0,0,0,1.227-1.26,15.85,15.85,0,0,0,1.9-4.29,117.273,117.273,0,0,0,2.8-13.073,117.223,117.223,0,0,1,3.439-15.479,17.5,17.5,0,0,1,2.5-5.145,4.08,4.08,0,0,1,3.225-1.87,4.348,4.348,0,0,1,3.077,1.392,13.67,13.67,0,0,1,2.6,3.857,84.508,84.508,0,0,1,4.248,12.091,86.122,86.122,0,0,0,4.69,13.154,15.473,15.473,0,0,0,3.137,4.468,7.027,7.027,0,0,0,1.931,1.294,5.519,5.519,0,0,0,2.222.466,4.451,4.451,0,0,0,2.239-.618,7.231,7.231,0,0,0,1.924-1.688,21.281,21.281,0,0,0,3.141-5.812c1.856-4.743,3.368-11.114,4.83-17.274a140.613,140.613,0,0,1,4.574-16.489,19.923,19.923,0,0,1,2.806-5.317,6.06,6.06,0,0,1,1.578-1.429,3.258,3.258,0,0,1,1.693-.484c2.26,0,4.2,2.616,5.924,8,1.58,4.924,2.8,11.593,3.984,18.043a159.1,159.1,0,0,0,3.891,17.7,22.016,22.016,0,0,0,2.644,5.9,6.573,6.573,0,0,0,1.675,1.718,3.6,3.6,0,0,0,2.013.636,5.674,5.674,0,0,0,3.445-1.141,9.614,9.614,0,0,0,2.493-2.951,46.812,46.812,0,0,0,3.5-8.895,49.241,49.241,0,0,1,4.023-10.021,11.818,11.818,0,0,1,2.958-3.435,7.535,7.535,0,0,1,4.044-1.523,30.167,30.167,0,0,1,10.01,1.206,66.414,66.414,0,0,1,9.882,3.625,93.063,93.063,0,0,1,10.52,5.581l.4-.626a93.842,93.842,0,0,0-10.614-5.63,66.993,66.993,0,0,0-9.994-3.666,30.86,30.86,0,0,0-10.26-1.229,8.55,8.55,0,0,0-2.4.534,8.508,8.508,0,0,0-2.036,1.134,12.53,12.53,0,0,0-3.148,3.645,49.752,49.752,0,0,0-4.094,10.178,46.279,46.279,0,0,1-3.431,8.747,8.9,8.9,0,0,1-2.294,2.729,4.883,4.883,0,0,1-3,.995c-2.132,0-3.972-2.529-5.625-7.733a158.429,158.429,0,0,1-3.868-17.6c-1.187-6.473-2.413-13.166-4.008-18.136a22.455,22.455,0,0,0-2.764-6.085,6.812,6.812,0,0,0-1.757-1.773,3.8,3.8,0,0,0-2.109-.655,4.038,4.038,0,0,0-2.07.587,6.794,6.794,0,0,0-1.778,1.6,20.6,20.6,0,0,0-2.922,5.518,141.017,141.017,0,0,0-4.6,16.584c-1.456,6.135-2.962,12.48-4.8,17.175a20.644,20.644,0,0,1-3.021,5.609,6.544,6.544,0,0,1-1.722,1.518,3.719,3.719,0,0,1-1.869.518,5.259,5.259,0,0,1-3.651-1.563,14.778,14.778,0,0,1-2.977-4.256,85.7,85.7,0,0,1-4.642-13.033,84.972,84.972,0,0,0-4.292-12.2,14.376,14.376,0,0,0-2.746-4.064,6.105,6.105,0,0,0-1.673-1.176,4.557,4.557,0,0,0-1.92-.425,4.065,4.065,0,0,0-2.085.579,6.279,6.279,0,0,0-1.725,1.576,18.2,18.2,0,0,0-2.618,5.365,117.615,117.615,0,0,0-3.466,15.585,116.839,116.839,0,0,1-2.777,12.983c-1.153,3.7-2.435,5.5-3.92,5.5-1.4,0-2.6-1.874-3.65-5.728a135.7,135.7,0,0,1-2.547-13.823c-1.012-6.638-2.059-13.5-3.741-18.921a23.321,23.321,0,0,0-3.092-6.773,8.376,8.376,0,0,0-2.086-2.077,5.333,5.333,0,0,0-2.551-.9,5.089,5.089,0,0,0-2.82.621,9.268,9.268,0,0,0-2.529,2.084,29.082,29.082,0,0,0-4.389,7.363c-2.682,5.982-4.952,13.736-6.955,20.577-1.218,4.16-2.368,8.089-3.429,10.97a23.545,23.545,0,0,1-1.525,3.465c-.585,1.02-1.007,1.323-1.258,1.4a.544.544,0,0,1-.554-.157l-.479.566a1.285,1.285,0,0,0,1.247.3,3.434,3.434,0,0,0,1.688-1.74,24.267,24.267,0,0,0,1.578-3.578c1.07-2.9,2.224-6.846,3.446-11.018,2-6.817,4.258-14.545,6.919-20.482a41.839,41.839,0,0,1,2.063-4.058,20.047,20.047,0,0,1,2.2-3.117,8.554,8.554,0,0,1,2.321-1.92,4.365,4.365,0,0,1,2.414-.537c2.907.232,5.223,3.252,7.08,9.234,1.665,5.363,2.707,12.2,3.716,18.812a136.109,136.109,0,0,0,2.565,13.907,17.049,17.049,0,0,0,1.76,4.471,4.674,4.674,0,0,0,1.156,1.308A2.43,2.43,0,0,0-2153.938,4258.142Z" transform="translate(2202.655 -4203.423)" fill="#1e1e1c"/>
      </g>
    </g>
  </g>
</svg>
