<svg id="Group_67" data-name="Group 67" xmlns="http://www.w3.org/2000/svg" xmlns:xlink="http://www.w3.org/1999/xlink" width="53.665" height="53.665" viewBox="0 0 53.665 53.665">
  <defs>
    <clipPath id="clip-path">
      <rect id="Rectangle_109" data-name="Rectangle 109" width="24" height="24" transform="translate(0)" fill="#fff" stroke="#fff" stroke-width="1"/>
    </clipPath>
  </defs>
  <circle id="Ellipse_10" data-name="Ellipse 10" cx="26.833" cy="26.833" r="26.833" fill="#e8451e"/>
  <g id="Group_132" data-name="Group 132" transform="translate(15 15)">
    <g id="Group_131" data-name="Group 131" clip-path="url(#clip-path)">
      <path id="Path_136" data-name="Path 136" d="M39.65,22.217a.437.437,0,0,1-.309-.747,12.672,12.672,0,0,0,0-17.937.437.437,0,1,1,.619-.619,13.546,13.546,0,0,1,0,19.174A.436.436,0,0,1,39.65,22.217Z" transform="translate(-21.188 -0.683)" fill="#fff"/>
      <path id="Path_136_-_Outline" data-name="Path 136 - Outline" d="M39.369,22.154a.656.656,0,0,1-.464-1.12,12.453,12.453,0,0,0,0-17.627.656.656,0,1,1,.928-.928,13.765,13.765,0,0,1,0,19.483A.652.652,0,0,1,39.369,22.154Zm0-19.43a.219.219,0,0,0-.155.373,12.89,12.89,0,0,1,0,18.246.219.219,0,0,0,.309.309,13.328,13.328,0,0,0,0-18.864A.217.217,0,0,0,39.369,2.724Z" transform="translate(-20.907 -0.402)" fill="#fff"/>
      <path id="Path_137" data-name="Path 137" d="M11.809,21.868a.437.437,0,0,1-.309-.128L5.5,15.745H1.749A1.751,1.751,0,0,1,0,14V7.872A1.751,1.751,0,0,1,1.749,6.123H5.5L11.5.128a.437.437,0,0,1,.747.309V21.43a.437.437,0,0,1-.437.437ZM1.749,7a.876.876,0,0,0-.875.875V14a.876.876,0,0,0,.875.875H5.686A.437.437,0,0,1,5.995,15l5.376,5.376V1.493L5.995,6.87A.437.437,0,0,1,5.686,7Z" transform="translate(0.875 0.885)" fill="#fff"/>
      <path id="Path_137_-_Outline" data-name="Path 137 - Outline" d="M11.527,21.8a.652.652,0,0,1-.464-.192L5.133,15.682H1.468A1.97,1.97,0,0,1-.5,13.714V7.591A1.97,1.97,0,0,1,1.468,5.623H5.133L11.063-.308a.656.656,0,0,1,.715-.142.654.654,0,0,1,.4.606V21.149a.656.656,0,0,1-.656.656ZM1.468,6.06A1.532,1.532,0,0,0-.063,7.591v6.123a1.532,1.532,0,0,0,1.531,1.531H5.314L11.373,21.3a.219.219,0,0,0,.373-.155V.156A.219.219,0,0,0,11.373,0L5.314,6.06Zm9.84,14.561-5.75-5.75a.217.217,0,0,0-.155-.064H1.468A1.1,1.1,0,0,1,.375,13.714V7.591A1.1,1.1,0,0,1,1.468,6.5H5.4a.217.217,0,0,0,.155-.064l5.75-5.75ZM1.468,6.935a.657.657,0,0,0-.656.656v6.123a.657.657,0,0,0,.656.656H5.4a.652.652,0,0,1,.464.192l5,5V1.74l-5,5a.652.652,0,0,1-.464.192Z" transform="translate(1.156 1.166)" fill="#fff"/>
      <path id="Path_138" data-name="Path 138" d="M32.337,23.634a.437.437,0,0,1-.309-.747,5.685,5.685,0,0,0,0-8.04.437.437,0,0,1,.618-.619,6.559,6.559,0,0,1,0,9.277A.436.436,0,0,1,32.337,23.634Z" transform="translate(-17.074 -7.049)" fill="#fff"/>
      <path id="Path_138_-_Outline" data-name="Path 138 - Outline" d="M32.056,23.572a.656.656,0,0,1-.464-1.12,5.466,5.466,0,0,0,0-7.731.656.656,0,0,1,.927-.928,6.778,6.778,0,0,1,0,9.587A.652.652,0,0,1,32.056,23.572Zm0-9.533a.219.219,0,0,0-.155.373,5.9,5.9,0,0,1,0,8.349.219.219,0,0,0,.309.309,6.341,6.341,0,0,0,0-8.968A.217.217,0,0,0,32.056,14.038Z" transform="translate(-16.793 -6.768)" fill="#fff"/>
      <path id="Path_139" data-name="Path 139" d="M35.993,22.925a.437.437,0,0,1-.309-.747,9.177,9.177,0,0,0,0-12.989.437.437,0,1,1,.619-.618,10.051,10.051,0,0,1,0,14.226A.436.436,0,0,1,35.993,22.925Z" transform="translate(-19.131 -3.866)" fill="#fff"/>
      <path id="Path_139_-_Outline" data-name="Path 139 - Outline" d="M35.712,22.862a.656.656,0,0,1-.464-1.12,8.958,8.958,0,0,0,0-12.68.656.656,0,0,1,.928-.928,10.269,10.269,0,0,1,0,14.535A.652.652,0,0,1,35.712,22.862Zm0-14.482a.219.219,0,0,0-.155.373,9.395,9.395,0,0,1,0,13.3.219.219,0,0,0,.309.309,9.833,9.833,0,0,0,0-13.917A.217.217,0,0,0,35.712,8.38Z" transform="translate(-18.85 -3.584)" fill="#fff"/>
    </g>
  </g>
</svg>
