<svg xmlns="http://www.w3.org/2000/svg" xmlns:xlink="http://www.w3.org/1999/xlink" width="330.381" height="330.381" viewBox="0 0 330.381 330.381">
  <defs>
    <linearGradient id="linear-gradient" x1="0.5" y1="0.015" x2="0.5" y2="1" gradientUnits="objectBoundingBox">
      <stop offset="0" stop-color="#fff"/>
      <stop offset="1" stop-color="#eaeaea"/>
    </linearGradient>
    <filter id="Ellipse_20" x="0" y="0" width="330.381" height="330.381" filterUnits="userSpaceOnUse">
      <feOffset input="SourceAlpha"/>
      <feGaussianBlur stdDeviation="10" result="blur"/>
      <feFlood flood-color="#e8451e" flood-opacity="0.749"/>
      <feComposite operator="in" in2="blur"/>
      <feComposite in="SourceGraphic"/>
    </filter>
    <clipPath id="clip-path">
      <rect id="Rectangle_2" data-name="Rectangle 2" width="189.617" height="71.625" fill="#1e1e1c"/>
    </clipPath>
  </defs>
  <g id="Group_6604" data-name="Group 6604" transform="translate(30 30)">
    <g id="Group_6602" data-name="Group 6602">
      <circle id="Ellipse_18" data-name="Ellipse 18" cx="135.191" cy="135.191" r="135.191" transform="translate(-0.191 0)" fill="url(#linear-gradient)"/>
      <g transform="matrix(1, 0, 0, 1, -30, -30)" filter="url(#Ellipse_20)">
        <g id="Ellipse_20-2" data-name="Ellipse 20" transform="translate(30 30)" fill="none" stroke="rgba(232,69,30,0)" stroke-width="3">
          <circle cx="135.191" cy="135.191" r="135.191" stroke="none"/>
          <circle cx="135.191" cy="135.191" r="133.691" fill="none"/>
        </g>
      </g>
    </g>
    <g id="Group_6603" data-name="Group 6603" transform="translate(40.59 99.511)">
      <g id="Group_1" data-name="Group 1" clip-path="url(#clip-path)">
        <path id="Path_1" data-name="Path 1" d="M81.6,46.465a2.519,2.519,0,0,1-2.854,2.848H58.8v6.528a2.6,2.6,0,0,1-.857,2.07,2.987,2.987,0,0,1-2.034.749,2.876,2.876,0,0,1-1.98-.748,2.626,2.626,0,0,1-.838-2.066V34.471H78.746q2.855,0,2.854,2.883Zm-5.708-6.25H58.8v3.353H75.892Z" transform="translate(-18.894 -12.267)" fill="#1e1e1c"/>
        <path id="Path_2" data-name="Path 2" d="M105.391,34.138a3.009,3.009,0,0,1,2.01.732,2.586,2.586,0,0,1,.862,2.087V52.583h19.55a2.386,2.386,0,0,1,1.944.839,3.049,3.049,0,0,1,.7,2.016,3.1,3.1,0,0,1-.7,2.051,2.384,2.384,0,0,1-1.944.839H105.391q-2.837,0-2.837-2.89V36.957a2.611,2.611,0,0,1,.844-2.087,2.945,2.945,0,0,1,1.993-.732" transform="translate(-36.495 -12.148)" fill="#1e1e1c"/>
        <path id="Path_3" data-name="Path 3" d="M172.429,52.583V36.957a2.594,2.594,0,0,1,.855-2.087,3.119,3.119,0,0,1,4.014,0,2.622,2.622,0,0,1,.838,2.087v18.48q0,2.89-2.854,2.89H152.45q-2.818,0-2.818-2.89V36.957a2.62,2.62,0,0,1,.838-2.087,2.914,2.914,0,0,1,1.98-.732,3.029,3.029,0,0,1,2.034.732,2.593,2.593,0,0,1,.857,2.087V52.583Z" transform="translate(-53.248 -12.148)" fill="#1e1e1c"/>
        <path id="Path_4" data-name="Path 4" d="M205.963,40.215v3.353h19.943q2.854,0,2.854,2.89v9.1q0,2.89-2.854,2.89H203.073a2.618,2.618,0,0,1-2.087-.838,3.008,3.008,0,0,1-.731-2.052,2.958,2.958,0,0,1,.731-2.016,2.621,2.621,0,0,1,2.087-.839h19.979V49.312H203.073a2.5,2.5,0,0,1-2.818-2.847V37.354q0-2.883,2.818-2.883h22.833a2.67,2.67,0,0,1,2.087.851,3.046,3.046,0,0,1,0,4.043,2.668,2.668,0,0,1-2.087.85Z" transform="translate(-71.263 -12.267)" fill="#1e1e1c"/>
        <path id="Path_5" data-name="Path 5" d="M252.72,56.563v1.818h9.487a1.3,1.3,0,0,1,1,.4,1.408,1.408,0,0,1,.368.986,1.385,1.385,0,0,1-.368.969,1.293,1.293,0,0,1-1,.4H252.72v2.8a1.271,1.271,0,0,1-.414,1.013,1.426,1.426,0,0,1-.967.36,1.394,1.394,0,0,1-.958-.36,1.277,1.277,0,0,1-.406-1.011V55.188a1.216,1.216,0,0,1,1.364-1.387h10.987a1.28,1.28,0,0,1,1.013.41,1.493,1.493,0,0,1,0,1.943,1.281,1.281,0,0,1-1.013.409Z" transform="translate(-88.956 -19.146)" fill="#e8451e"/>
        <path id="Path_6" data-name="Path 6" d="M279.936,61.618l4.117-7.119a1.668,1.668,0,0,1,.643-.634,1.634,1.634,0,0,1,.8-.223,1.278,1.278,0,0,1,.9.36,1.613,1.613,0,0,1,.386,1.218v8.8a1.253,1.253,0,0,1-.412,1,1.391,1.391,0,0,1-.943.36,1.427,1.427,0,0,1-.987-.36,1.268,1.268,0,0,1-.4-1V59.783l-2.95,4.837a1.342,1.342,0,0,1-1.15.755,1.325,1.325,0,0,1-1.166-.755l-2.933-4.837V64.02a1.253,1.253,0,0,1-.412,1,1.436,1.436,0,0,1-.978.36,1.381,1.381,0,0,1-.951-.36,1.264,1.264,0,0,1-.4-1v-8.8A1.616,1.616,0,0,1,273.477,54a1.259,1.259,0,0,1,.884-.36,1.619,1.619,0,0,1,.806.223,1.694,1.694,0,0,1,.634.634Z" transform="translate(-97.182 -19.089)" fill="#e8451e"/>
        <path id="Line_1" data-name="Line 1" d="M157.7.373H0V-1.294H157.7Z" transform="translate(31.916 49.951)" fill="#e8451e"/>
        <path id="Path_7" data-name="Path 7" d="M0,54.993v1.092H2.577V53.9H0Z" transform="translate(0 -19.181)" fill="#e02c13"/>
        <path id="Path_8" data-name="Path 8" d="M6,54.2v2.525H8.579v-5.05H6Z" transform="translate(-2.136 -18.39)" fill="#e8451e"/>
        <path id="Path_9" data-name="Path 9" d="M12,53.787v3.275h2.577V50.512H12Z" transform="translate(-4.272 -17.975)" fill="#e8451e"/>
        <path id="Path_10" data-name="Path 10" d="M18.005,51.155V59.2h2.577V43.114H18.005Z" transform="translate(-6.407 -15.343)" fill="#e8451e"/>
        <path id="Path_11" data-name="Path 11" d="M24.007,43.037V65.772h2.577V20.3H24.007Z" transform="translate(-8.543 -7.224)" fill="#e8451e"/>
        <path id="Path_12" data-name="Path 12" d="M30.009,35.812V71.625h2.577V0H30.009Z" transform="translate(-10.679)" fill="#e8451e"/>
        <path id="Path_13" data-name="Path 13" d="M36.011,45.7V63.611h2.577V27.8H36.011Z" transform="translate(-12.815 -9.893)" fill="#e8451e"/>
        <path id="Path_14" data-name="Path 14" d="M42.013,53.23v4.284H44.59V48.946H42.013Z" transform="translate(-14.951 -17.418)" fill="#e8451e"/>
        <path id="Path_15" data-name="Path 15" d="M249.953,86.193V81.522h1.6a1.954,1.954,0,0,1,1.207.318,1.118,1.118,0,0,1,.414.946,1,1,0,0,1-.173.577,1.114,1.114,0,0,1-.507.4,1.027,1.027,0,0,1,.586.386,1.128,1.128,0,0,1,.207.681,1.243,1.243,0,0,1-.422,1.011,1.832,1.832,0,0,1-1.208.353Zm.812-2.7h.8a.918.918,0,0,0,.592-.172.589.589,0,0,0,.213-.486.6.6,0,0,0-.2-.5.993.993,0,0,0-.615-.154h-.789Zm0,.6v1.46h.9a.874.874,0,0,0,.6-.189.747.747,0,0,0-.529-1.27Z" transform="translate(-88.948 -29.01)" fill="#1e1e1c"/>
        <path id="Path_16" data-name="Path 16" d="M259.13,85.105h-1.809l-.378,1.087H256.1l1.764-4.671h.728l1.768,4.671h-.847Zm-1.581-.654H258.9l-.677-1.938Z" transform="translate(-91.135 -29.01)" fill="#1e1e1c"/>
        <path id="Path_17" data-name="Path 17" d="M267.6,86.193h-.808V84.121H264.7v2.072h-.812V81.522h.812v1.944h2.088V81.522h.808Z" transform="translate(-93.909 -29.01)" fill="#1e1e1c"/>
        <path id="Path_18" data-name="Path 18" d="M273.214,84.4h-.9v1.8H271.5V81.522h1.642a1.91,1.91,0,0,1,1.248.363,1.283,1.283,0,0,1,.44,1.05,1.317,1.317,0,0,1-.227.785,1.44,1.44,0,0,1-.63.486l1.049,1.945v.042h-.869Zm-.9-.654h.834a.929.929,0,0,0,.642-.207.723.723,0,0,0,.231-.566.769.769,0,0,0-.214-.581.9.9,0,0,0-.636-.211h-.857Z" transform="translate(-96.615 -29.01)" fill="#1e1e1c"/>
        <path id="Path_19" data-name="Path 19" d="M280.605,85.105H278.8l-.378,1.087h-.844l1.764-4.671h.729l1.768,4.671h-.847Zm-1.581-.654h1.354l-.677-1.938Z" transform="translate(-98.777 -29.01)" fill="#1e1e1c"/>
        <rect id="Rectangle_1" data-name="Rectangle 1" width="0.808" height="4.671" transform="translate(183.865 52.512)" fill="#1e1e1c"/>
        <path id="Path_20" data-name="Path 20" d="M292.31,86.193H291.5l-2.082-3.314v3.314h-.812V81.522h.812l2.088,3.326V81.522h.805Z" transform="translate(-102.703 -29.01)" fill="#1e1e1c"/>
      </g>
    </g>
  </g>
</svg>
