<svg xmlns="http://www.w3.org/2000/svg" width="24.536" height="16.562" viewBox="0 0 24.536 16.562">
  <path id="Icon_zocial-email" data-name="Icon zocial-email" d="M.072,19.163V5.535q0-.024.071-.45l8.021,6.862-8,7.69a2.005,2.005,0,0,1-.095-.473ZM1.137,4.139a1.02,1.02,0,0,1,.4-.071h21.6a1.34,1.34,0,0,1,.426.071l-8.045,6.885-1.065.852L12.352,13.6l-2.106-1.727-1.065-.852Zm.024,16.42,8.068-7.737,3.123,2.532,3.123-2.532,8.068,7.737a1.136,1.136,0,0,1-.4.071H1.539a1.072,1.072,0,0,1-.379-.071ZM16.54,11.947l8-6.862a1.412,1.412,0,0,1,.071.45V19.163a1.813,1.813,0,0,1-.071.473Z" transform="translate(-0.072 -4.068)" fill="#e8451e"/>
</svg>
