<svg xmlns="http://www.w3.org/2000/svg" width="20.158" height="20.154" viewBox="0 0 20.158 20.154">
  <path id="Icon_awesome-instagram" data-name="Icon awesome-instagram" d="M10.076,7.147a5.167,5.167,0,1,0,5.167,5.167A5.159,5.159,0,0,0,10.076,7.147Zm0,8.526a3.359,3.359,0,1,1,3.359-3.359A3.365,3.365,0,0,1,10.076,15.674ZM16.66,6.936a1.205,1.205,0,1,1-1.205-1.205A1.2,1.2,0,0,1,16.66,6.936Zm3.422,1.223a5.964,5.964,0,0,0-1.628-4.223,6,6,0,0,0-4.223-1.628c-1.664-.094-6.651-.094-8.315,0A6,6,0,0,0,1.693,3.932,5.984,5.984,0,0,0,.066,8.155c-.094,1.664-.094,6.651,0,8.315a5.964,5.964,0,0,0,1.628,4.223A6.011,6.011,0,0,0,5.916,22.32c1.664.094,6.651.094,8.315,0a5.964,5.964,0,0,0,4.223-1.628,6,6,0,0,0,1.628-4.223c.094-1.664.094-6.647,0-8.311Zm-2.15,10.1a3.4,3.4,0,0,1-1.916,1.916c-1.327.526-4.475.4-5.941.4s-4.618.117-5.941-.4A3.4,3.4,0,0,1,2.22,18.255c-.526-1.327-.4-4.475-.4-5.941S1.7,7.7,2.22,6.374A3.4,3.4,0,0,1,4.135,4.458c1.327-.526,4.475-.4,5.941-.4s4.618-.117,5.941.4a3.4,3.4,0,0,1,1.916,1.916c.526,1.327.4,4.475.4,5.941S18.458,16.933,17.932,18.255Z" transform="translate(0.005 -2.238)" fill="#e8451e"/>
</svg>
