<svg id="Group_6592" data-name="Group 6592" xmlns="http://www.w3.org/2000/svg" xmlns:xlink="http://www.w3.org/1999/xlink" width="134.73" height="50.892" viewBox="0 0 134.73 50.892">
  <defs>
    <clipPath id="clip-path">
      <rect id="Rectangle_2" data-name="Rectangle 2" width="134.73" height="50.892" fill="#1e1e1c"/>
    </clipPath>
  </defs>
  <g id="Group_1" data-name="Group 1" clip-path="url(#clip-path)">
    <path id="Path_1" data-name="Path 1" d="M73.349,42.993a1.79,1.79,0,0,1-2.028,2.023H57.151v4.639a1.85,1.85,0,0,1-.609,1.471,2.122,2.122,0,0,1-1.445.532,2.044,2.044,0,0,1-1.407-.531,1.866,1.866,0,0,1-.6-1.468V34.471H71.321a1.8,1.8,0,0,1,2.028,2.049Zm-4.056-4.441H57.151v2.383H69.293Z" transform="translate(-28.794 -18.694)" fill="#1e1e1c"/>
    <path id="Path_2" data-name="Path 2" d="M104.57,34.138a2.138,2.138,0,0,1,1.428.52,1.838,1.838,0,0,1,.613,1.483v11.1H120.5a1.7,1.7,0,0,1,1.381.6,2.167,2.167,0,0,1,.495,1.432,2.2,2.2,0,0,1-.495,1.457,1.694,1.694,0,0,1-1.381.6H104.57a1.8,1.8,0,0,1-2.016-2.053V36.141a1.855,1.855,0,0,1,.6-1.483,2.093,2.093,0,0,1,1.416-.52" transform="translate(-55.616 -18.513)" fill="#1e1e1c"/>
    <path id="Path_3" data-name="Path 3" d="M165.831,47.244v-11.1a1.843,1.843,0,0,1,.608-1.483,2.216,2.216,0,0,1,2.852,0,1.863,1.863,0,0,1,.6,1.483V49.272a1.8,1.8,0,0,1-2.028,2.053H151.634a1.793,1.793,0,0,1-2-2.053V36.141a1.862,1.862,0,0,1,.6-1.483,2.07,2.07,0,0,1,1.407-.52,2.152,2.152,0,0,1,1.445.52,1.842,1.842,0,0,1,.609,1.483v11.1Z" transform="translate(-81.147 -18.513)" fill="#1e1e1c"/>
    <path id="Path_4" data-name="Path 4" d="M204.311,38.552v2.383h14.17a1.8,1.8,0,0,1,2.028,2.054v6.464a1.8,1.8,0,0,1-2.028,2.053H202.257a1.86,1.86,0,0,1-1.483-.6,2.137,2.137,0,0,1-.519-1.458,2.1,2.1,0,0,1,.519-1.432,1.862,1.862,0,0,1,1.483-.6h14.2V45.016h-14.2a1.779,1.779,0,0,1-2-2.023V36.52a1.791,1.791,0,0,1,2-2.049h16.224a1.9,1.9,0,0,1,1.483.6,2.165,2.165,0,0,1,0,2.872,1.9,1.9,0,0,1-1.483.6Z" transform="translate(-108.601 -18.694)" fill="#1e1e1c"/>
    <path id="Path_5" data-name="Path 5" d="M251.925,55.764v1.292h6.741a.92.92,0,0,1,.713.287,1,1,0,0,1,.262.7.984.984,0,0,1-.262.688.919.919,0,0,1-.713.287h-6.741V61a.9.9,0,0,1-.294.719,1.013,1.013,0,0,1-.687.256.991.991,0,0,1-.681-.256.908.908,0,0,1-.288-.718V54.787a.864.864,0,0,1,.969-.986h7.807a.909.909,0,0,1,.72.291,1.061,1.061,0,0,1,0,1.381.911.911,0,0,1-.72.291Z" transform="translate(-135.565 -29.177)" fill="#e8451e"/>
    <path id="Path_6" data-name="Path 6" d="M277.955,59.31l2.926-5.058a1.185,1.185,0,0,1,.457-.451,1.161,1.161,0,0,1,.567-.158.908.908,0,0,1,.64.256,1.146,1.146,0,0,1,.274.865v6.252a.89.89,0,0,1-.292.707.989.989,0,0,1-.67.256,1.014,1.014,0,0,1-.7-.256.9.9,0,0,1-.286-.707v-3.01l-2.1,3.437a.954.954,0,0,1-.817.536.941.941,0,0,1-.828-.536l-2.084-3.437v3.01a.89.89,0,0,1-.292.707,1.02,1.02,0,0,1-.7.256.981.981,0,0,1-.676-.256.9.9,0,0,1-.286-.707V54.763a1.148,1.148,0,0,1,.274-.865.9.9,0,0,1,.628-.256,1.15,1.15,0,0,1,.573.158,1.2,1.2,0,0,1,.451.451Z" transform="translate(-148.101 -29.091)" fill="#e8451e"/>
    <path id="Line_1" data-name="Line 1" d="M112.053-.11H0V-1.294H112.053Z" transform="translate(22.678 35.866)" fill="#e8451e"/>
    <path id="Path_7" data-name="Path 7" d="M0,54.677v.776H1.831V53.9H0Z" transform="translate(0 -29.231)" fill="#e02c13"/>
    <path id="Path_8" data-name="Path 8" d="M6,53.471v1.794H7.833V51.677H6Z" transform="translate(-3.255 -28.025)" fill="#e8451e"/>
    <path id="Path_9" data-name="Path 9" d="M12,52.839v2.327h1.831V50.512H12Z" transform="translate(-6.51 -27.393)" fill="#e8451e"/>
    <path id="Path_10" data-name="Path 10" d="M18.006,48.827v5.713h1.831V43.114H18.006Z" transform="translate(-9.765 -23.381)" fill="#e8451e"/>
    <path id="Path_11" data-name="Path 11" d="M24.007,36.456V52.61h1.831V20.3H24.007Z" transform="translate(-13.019 -11.009)" fill="#e8451e"/>
    <path id="Path_12" data-name="Path 12" d="M30.009,25.446V50.892H31.84V0H30.009Z" transform="translate(-16.274)" fill="#e8451e"/>
    <path id="Path_13" data-name="Path 13" d="M36.011,40.522V53.245h1.831V27.8H36.011Z" transform="translate(-19.529 -15.076)" fill="#e8451e"/>
    <path id="Path_14" data-name="Path 14" d="M42.013,51.99v3.044h1.831V48.946H42.013Z" transform="translate(-22.784 -26.544)" fill="#e8451e"/>
    <path id="Path_15" data-name="Path 15" d="M249.953,84.841V81.522h1.137a1.388,1.388,0,0,1,.857.226.794.794,0,0,1,.294.672.713.713,0,0,1-.123.41.791.791,0,0,1-.36.283.73.73,0,0,1,.416.275.8.8,0,0,1,.147.484.883.883,0,0,1-.3.718,1.3,1.3,0,0,1-.858.251Zm.577-1.921h.565a.652.652,0,0,0,.421-.122.418.418,0,0,0,.152-.345.423.423,0,0,0-.14-.356.706.706,0,0,0-.437-.109h-.561Zm0,.424V84.38h.64a.621.621,0,0,0,.424-.135.53.53,0,0,0-.376-.9Z" transform="translate(-135.553 -44.21)" fill="#1e1e1c"/>
    <path id="Path_16" data-name="Path 16" d="M258.253,84.068h-1.286l-.269.773h-.6l1.254-3.319h.518l1.256,3.319h-.6Zm-1.124-.465h.962l-.481-1.377Z" transform="translate(-138.886 -44.21)" fill="#1e1e1c"/>
    <path id="Path_17" data-name="Path 17" d="M266.528,84.841h-.574V83.369H264.47v1.472h-.577V81.522h.577V82.9h1.484V81.522h.574Z" transform="translate(-143.113 -44.211)" fill="#1e1e1c"/>
    <path id="Path_18" data-name="Path 18" d="M272.717,83.564h-.643v1.276H271.5V81.522h1.167a1.358,1.358,0,0,1,.887.258.912.912,0,0,1,.313.746.936.936,0,0,1-.161.558,1.023,1.023,0,0,1-.448.346L274,84.811v.03h-.617Zm-.643-.465h.593a.66.66,0,0,0,.456-.147.513.513,0,0,0,.164-.4.546.546,0,0,0-.152-.413.642.642,0,0,0-.452-.15h-.609Z" transform="translate(-147.237 -44.21)" fill="#1e1e1c"/>
    <path id="Path_19" data-name="Path 19" d="M279.728,84.068h-1.286l-.269.773h-.6l1.254-3.319h.518l1.256,3.319H280ZM278.6,83.6h.962l-.481-1.377Z" transform="translate(-150.532 -44.21)" fill="#1e1e1c"/>
    <rect id="Rectangle_1" data-name="Rectangle 1" width="0.574" height="3.319" transform="translate(130.643 37.312)" fill="#1e1e1c"/>
    <path id="Path_20" data-name="Path 20" d="M291.238,84.841h-.577l-1.479-2.355v2.355h-.577V81.522h.577l1.484,2.364V81.522h.572Z" transform="translate(-156.514 -44.211)" fill="#1e1e1c"/>
  </g>
</svg>
