<svg xmlns="http://www.w3.org/2000/svg" width="20.336" height="20.373" viewBox="0 0 20.336 20.373">
  <path id="Icon_feather-phone" data-name="Icon feather-phone" d="M19.216,21.873c-.083,0-.168,0-.251-.011l-.017,0a19.411,19.411,0,0,1-8.419-2.994,19.171,19.171,0,0,1-5.854-5.854A19.407,19.407,0,0,1,1.681,4.552V4.538A2.787,2.787,0,0,1,4.452,1.5H7.259a2.787,2.787,0,0,1,2.759,2.4v.009a11.016,11.016,0,0,0,.6,2.407,2.794,2.794,0,0,1-.628,2.938l0,0-.666.666a13.946,13.946,0,0,0,4.26,4.26l.666-.666,0,0a2.787,2.787,0,0,1,2.94-.627,11.011,11.011,0,0,0,2.405.6h.008A2.787,2.787,0,0,1,22,16.3v2.775a2.787,2.787,0,0,1-2.787,2.8Zm-.077-1.861c.025,0,.051,0,.077,0a.929.929,0,0,0,.929-.933s0,0,0,0V16.291q0-.012,0-.023a.929.929,0,0,0-.8-.943,12.877,12.877,0,0,1-2.809-.7.929.929,0,0,0-.98.206l-1.178,1.178a.929.929,0,0,1-1.116.151,15.8,15.8,0,0,1-5.923-5.923.929.929,0,0,1,.151-1.116L8.672,7.943a.932.932,0,0,0,.208-.979,12.882,12.882,0,0,1-.7-2.811.933.933,0,0,0-.919-.8H4.453a.929.929,0,0,0-.924,1.007A17.541,17.541,0,0,0,6.236,12l0,.007A17.3,17.3,0,0,0,11.529,17.3l.007,0A17.543,17.543,0,0,0,19.14,20.011Z" transform="translate(-1.668 -1.5)" fill="#e8451e"/>
</svg>
