<svg xmlns="http://www.w3.org/2000/svg" width="133.88" height="44.752" viewBox="0 0 133.88 44.752">
  <g id="Download_on_the_App_Store_Badge_US-UK_RGB_blk_092917" transform="translate(0 0)">
    <g id="Group_212" data-name="Group 212" transform="translate(0 0)">
      <g id="Group_210" data-name="Group 210">
        <path id="Path_717" data-name="Path 717" d="M123.218,0H10.667c-.41,0-.816,0-1.225,0C9.1,0,8.76.011,8.414.016a14.784,14.784,0,0,0-2.242.2,7.457,7.457,0,0,0-2.127.7A7.2,7.2,0,0,0,2.235,2.234,7,7,0,0,0,.917,4.048a7.385,7.385,0,0,0-.7,2.129,14.537,14.537,0,0,0-.2,2.24C.007,8.76.005,9.1,0,9.447v25.86c.005.347.007.684.017,1.031a14.536,14.536,0,0,0,.2,2.24,7.37,7.37,0,0,0,.7,2.131,6.945,6.945,0,0,0,1.318,1.806,7.02,7.02,0,0,0,1.811,1.319,7.5,7.5,0,0,0,2.127.706,15.052,15.052,0,0,0,2.242.2c.346.008.686.012,1.028.012.409,0,.815,0,1.225,0H123.218c.4,0,.811,0,1.213,0,.341,0,.691,0,1.031-.012a14.856,14.856,0,0,0,2.238-.2,7.613,7.613,0,0,0,2.135-.706,7.023,7.023,0,0,0,1.809-1.319,7.155,7.155,0,0,0,1.322-1.806,7.39,7.39,0,0,0,.693-2.131,15.109,15.109,0,0,0,.208-2.24c0-.347,0-.684,0-1.031.009-.406.009-.811.009-1.224V10.669c0-.41,0-.816-.009-1.221,0-.343,0-.687,0-1.03a15.1,15.1,0,0,0-.208-2.24,7.4,7.4,0,0,0-.693-2.129A7.234,7.234,0,0,0,129.835.916a7.571,7.571,0,0,0-2.135-.7,14.593,14.593,0,0,0-2.238-.2C125.121.011,124.772,0,124.431,0c-.4,0-.811,0-1.213,0Z" transform="translate(0 0)" fill="#a6a6a6"/>
        <path id="Path_718" data-name="Path 718" d="M9.344,43.669c-.341,0-.674,0-1.012-.012a14.2,14.2,0,0,1-2.091-.182,6.583,6.583,0,0,1-1.854-.613,6.048,6.048,0,0,1-1.563-1.137,5.953,5.953,0,0,1-1.142-1.562,6.4,6.4,0,0,1-.608-1.854,13.888,13.888,0,0,1-.186-2.1c-.007-.236-.016-1.022-.016-1.022V9.344s.01-.774.016-1a13.84,13.84,0,0,1,.185-2.094,6.439,6.439,0,0,1,.608-1.86A6.012,6.012,0,0,1,2.818,2.825,6.227,6.227,0,0,1,4.387,1.681a6.515,6.515,0,0,1,1.85-.609,14.081,14.081,0,0,1,2.1-.184L9.345.875H124.322l1.022.014a13.856,13.856,0,0,1,2.079.182,6.644,6.644,0,0,1,1.869.613,6.258,6.258,0,0,1,2.7,2.707,6.447,6.447,0,0,1,.6,1.845,14.538,14.538,0,0,1,.194,2.111c0,.317,0,.657,0,1,.009.42.009.819.009,1.221V33.98c0,.406,0,.8-.009,1.2,0,.364,0,.7,0,1.04a14.252,14.252,0,0,1-.191,2.074,6.421,6.421,0,0,1-.6,1.868,6.131,6.131,0,0,1-1.136,1.55,6.055,6.055,0,0,1-1.566,1.144,6.558,6.558,0,0,1-1.866.615,14.033,14.033,0,0,1-2.091.182c-.328.008-.671.012-1,.012l-1.213,0Z" transform="translate(0.104 0.104)"/>
      </g>
      <g id="_Group_" data-name="&lt;Group&gt;" transform="translate(11.156 9.756)">
        <g id="_Group_2" data-name="&lt;Group&gt;">
          <g id="_Group_3" data-name="&lt;Group&gt;">
            <path id="_Path_" data-name="&lt;Path&gt;" d="M26.527,21.052a5.537,5.537,0,0,1,2.637-4.645A5.667,5.667,0,0,0,24.7,13.993c-1.879-.2-3.7,1.124-4.657,1.124-.976,0-2.45-1.1-4.037-1.072A5.947,5.947,0,0,0,11,17.1c-2.164,3.746-.55,9.252,1.523,12.28,1.037,1.483,2.249,3.139,3.835,3.08,1.552-.064,2.131-.99,4-.99,1.856,0,2.4.99,4.018.952,1.665-.027,2.714-1.489,3.715-2.986a12.264,12.264,0,0,0,1.7-3.46A5.35,5.35,0,0,1,26.527,21.052Z" transform="translate(-9.972 -8.096)" fill="#fff"/>
            <path id="_Path_2" data-name="&lt;Path&gt;" d="M22.423,12.626A5.451,5.451,0,0,0,23.67,8.72a5.546,5.546,0,0,0-3.589,1.857,5.187,5.187,0,0,0-1.28,3.761,4.586,4.586,0,0,0,3.621-1.712Z" transform="translate(-8.924 -8.72)" fill="#fff"/>
          </g>
        </g>
        <g id="Group_211" data-name="Group 211" transform="translate(27.361 10.238)">
          <path id="Path_719" data-name="Path 719" d="M43.238,28.216h-5.3L36.67,31.971H34.427l5.016-13.893h2.33L46.79,31.971H44.508Zm-4.747-1.733h4.2l-2.069-6.094h-.058Z" transform="translate(-34.427 -17.846)" fill="#fff"/>
          <path id="Path_720" data-name="Path 720" d="M56.173,26.519c0,3.148-1.685,5.17-4.227,5.17a3.434,3.434,0,0,1-3.187-1.772h-.048v5.017H46.631V21.454h2.013v1.685h.038a3.593,3.593,0,0,1,3.225-1.791C54.478,21.348,56.173,23.38,56.173,26.519Zm-2.137,0c0-2.051-1.06-3.4-2.677-3.4-1.589,0-2.657,1.377-2.657,3.4,0,2.041,1.069,3.408,2.657,3.408,1.617,0,2.677-1.338,2.677-3.408Z" transform="translate(-32.978 -17.458)" fill="#fff"/>
          <path id="Path_721" data-name="Path 721" d="M66.138,26.519c0,3.148-1.685,5.17-4.227,5.17a3.434,3.434,0,0,1-3.187-1.772h-.048v5.017H56.6V21.454h2.013v1.685h.038a3.593,3.593,0,0,1,3.225-1.791C64.443,21.348,66.138,23.38,66.138,26.519Zm-2.137,0c0-2.051-1.06-3.4-2.677-3.4-1.589,0-2.657,1.377-2.657,3.4,0,2.041,1.069,3.408,2.657,3.408,1.617,0,2.677-1.338,2.677-3.408Z" transform="translate(-31.794 -17.458)" fill="#fff"/>
          <path id="Path_722" data-name="Path 722" d="M71.936,28.125c.154,1.378,1.492,2.282,3.321,2.282,1.752,0,3.013-.9,3.013-2.147,0-1.078-.76-1.724-2.561-2.167l-1.8-.434c-2.551-.616-3.735-1.809-3.735-3.745,0-2.4,2.089-4.044,5.055-4.044,2.936,0,4.948,1.647,5.016,4.044h-2.1c-.126-1.386-1.272-2.223-2.947-2.223s-2.821.847-2.821,2.079c0,.982.732,1.56,2.523,2l1.531.376c2.851.674,4.035,1.819,4.035,3.851,0,2.6-2.07,4.227-5.363,4.227-3.081,0-5.161-1.59-5.3-4.1Z" transform="translate(-30.224 -17.871)" fill="#fff"/>
          <path id="Path_723" data-name="Path 723" d="M83.724,19.3v2.4h1.926v1.647H83.724v5.584c0,.868.386,1.272,1.232,1.272a6.5,6.5,0,0,0,.684-.048v1.637a5.709,5.709,0,0,1-1.155.1c-2.051,0-2.851-.77-2.851-2.735V23.343H80.163V21.7h1.473V19.3Z" transform="translate(-28.994 -17.701)" fill="#fff"/>
          <path id="Path_724" data-name="Path 724" d="M86.065,26.521c0-3.187,1.877-5.19,4.8-5.19s4.805,2,4.805,5.19-1.858,5.19-4.805,5.19S86.065,29.717,86.065,26.521Zm7.491,0c0-2.186-1-3.477-2.687-3.477s-2.686,1.3-2.686,3.477c0,2.195,1,3.475,2.686,3.475s2.687-1.281,2.687-3.475Z" transform="translate(-28.293 -17.46)" fill="#fff"/>
          <path id="Path_725" data-name="Path 725" d="M96.186,21.454h1.983v1.724h.048a2.416,2.416,0,0,1,2.436-1.83,3.207,3.207,0,0,1,.712.078V23.37a2.906,2.906,0,0,0-.934-.126,2.1,2.1,0,0,0-2.167,2.33v6.008H96.186Z" transform="translate(-27.091 -17.458)" fill="#fff"/>
          <path id="Path_726" data-name="Path 726" d="M110.354,28.61c-.28,1.839-2.07,3.1-4.362,3.1-2.947,0-4.776-1.974-4.776-5.142s1.839-5.238,4.688-5.238c2.8,0,4.565,1.925,4.565,5v.712h-7.154v.126a2.638,2.638,0,0,0,2.725,2.869,2.292,2.292,0,0,0,2.339-1.425Zm-7.029-3.023h5.064a2.436,2.436,0,0,0-2.484-2.571,2.564,2.564,0,0,0-2.579,2.571Z" transform="translate(-26.493 -17.46)" fill="#fff"/>
        </g>
      </g>
    </g>
    <g id="_Group_4" data-name="&lt;Group&gt;" transform="translate(39.908 9.439)">
      <g id="Group_213" data-name="Group 213">
        <path id="Path_727" data-name="Path 727" d="M38.082,8.732a2.953,2.953,0,0,1,3.141,3.317c0,2.133-1.153,3.359-3.141,3.359H35.671V8.732Zm-1.374,5.732h1.259a2.1,2.1,0,0,0,2.2-2.4,2.1,2.1,0,0,0-2.2-2.387H36.708Z" transform="translate(-35.671 -8.403)" fill="#fff"/>
        <path id="Path_728" data-name="Path 728" d="M41.682,12.722a2.387,2.387,0,1,1,4.752,0,2.387,2.387,0,1,1-4.752,0Zm3.729,0c0-1.092-.491-1.731-1.351-1.731s-1.35.639-1.35,1.731.486,1.734,1.35,1.734S45.411,13.818,45.411,12.722Z" transform="translate(-34.958 -8.239)" fill="#fff"/>
        <path id="Path_729" data-name="Path 729" d="M52.168,15.233H51.136L50.1,11.522h-.079l-1.037,3.71H47.958l-1.389-5.038h1.008l.9,3.844h.074l1.036-3.844h.954l1.036,3.844h.079l.9-3.844h.994Z" transform="translate(-34.376 -8.228)" fill="#fff"/>
        <path id="Path_730" data-name="Path 730" d="M53.854,10.206h.957v.8h.074a1.508,1.508,0,0,1,1.5-.9,1.639,1.639,0,0,1,1.744,1.874v3.261h-.994V12.232c0-.81-.352-1.212-1.087-1.212a1.156,1.156,0,0,0-1.2,1.277v2.947h-.994Z" transform="translate(-33.511 -8.239)" fill="#fff"/>
        <path id="Path_731" data-name="Path 731" d="M59.094,8.437h.994v7h-.994Z" transform="translate(-32.888 -8.437)" fill="#fff"/>
        <path id="Path_732" data-name="Path 732" d="M61.219,12.722a2.387,2.387,0,1,1,4.752,0,2.387,2.387,0,1,1-4.752,0Zm3.729,0c0-1.092-.491-1.731-1.352-1.731s-1.35.639-1.35,1.731.486,1.734,1.35,1.734S64.948,13.818,64.948,12.722Z" transform="translate(-32.637 -8.239)" fill="#fff"/>
        <path id="Path_733" data-name="Path 733" d="M66.4,13.818c0-.907.675-1.43,1.874-1.5l1.365-.079V11.8c0-.532-.352-.833-1.031-.833-.555,0-.94.2-1.05.56H66.6c.1-.865.916-1.42,2.058-1.42,1.263,0,1.975.629,1.975,1.693v3.442h-.957v-.708h-.079a1.7,1.7,0,0,1-1.513.791A1.522,1.522,0,0,1,66.4,13.818Zm3.238-.43v-.421l-1.23.079c-.694.046-1.008.282-1.008.727s.393.717.934.717a1.188,1.188,0,0,0,1.3-1.1Z" transform="translate(-32.02 -8.239)" fill="#fff"/>
        <path id="Path_734" data-name="Path 734" d="M71.348,12.92c0-1.592.818-2.6,2.091-2.6a1.66,1.66,0,0,1,1.545.884h.074V8.437h.994v7H75.1v-.8h-.079a1.748,1.748,0,0,1-1.582.879C72.158,15.525,71.348,14.516,71.348,12.92Zm1.027,0c0,1.069.5,1.712,1.346,1.712s1.356-.652,1.356-1.707-.523-1.712-1.356-1.712-1.346.647-1.346,1.707Z" transform="translate(-31.433 -8.437)" fill="#fff"/>
        <path id="Path_735" data-name="Path 735" d="M79.231,12.722a2.387,2.387,0,1,1,4.752,0,2.387,2.387,0,1,1-4.752,0Zm3.729,0c0-1.092-.491-1.731-1.352-1.731s-1.35.639-1.35,1.731.486,1.734,1.35,1.734S82.96,13.818,82.96,12.722Z" transform="translate(-30.498 -8.239)" fill="#fff"/>
        <path id="Path_736" data-name="Path 736" d="M84.669,10.206h.957v.8H85.7a1.508,1.508,0,0,1,1.5-.9,1.639,1.639,0,0,1,1.744,1.874v3.261h-.994V12.232c0-.81-.352-1.212-1.087-1.212a1.156,1.156,0,0,0-1.2,1.277v2.947h-.994Z" transform="translate(-29.85 -8.239)" fill="#fff"/>
        <path id="Path_737" data-name="Path 737" d="M93.706,9.074v1.277H94.8v.837H93.706v2.59c0,.528.217.759.712.759a3.319,3.319,0,0,0,.379-.023v.828a3.262,3.262,0,0,1-.541.051c-1.106,0-1.546-.389-1.546-1.36V11.188h-.8v-.837h.8V9.074Z" transform="translate(-28.99 -8.361)" fill="#fff"/>
        <path id="Path_738" data-name="Path 738" d="M95.7,8.437h.985v2.776h.079a1.55,1.55,0,0,1,1.536-.9,1.66,1.66,0,0,1,1.735,1.878v3.253h-1V12.434c0-.8-.375-1.212-1.077-1.212A1.177,1.177,0,0,0,96.7,12.5v2.942H95.7Z" transform="translate(-28.539 -8.437)" fill="#fff"/>
        <path id="Path_739" data-name="Path 739" d="M105.242,13.883a2.045,2.045,0,0,1-2.183,1.457,2.288,2.288,0,0,1-2.327-2.6,2.324,2.324,0,0,1,2.323-2.632c1.4,0,2.247.958,2.247,2.54v.347h-3.557v.056a1.332,1.332,0,0,0,1.342,1.443,1.208,1.208,0,0,0,1.2-.611Zm-3.5-1.624h2.545a1.216,1.216,0,0,0-1.24-1.305,1.288,1.288,0,0,0-1.3,1.305Z" transform="translate(-27.945 -8.239)" fill="#fff"/>
      </g>
    </g>
  </g>
</svg>
