<svg xmlns="http://www.w3.org/2000/svg" width="1647.408" height="127.345" viewBox="0 0 1647.408 127.345">
  <g id="Group_70241" data-name="Group 70241" transform="translate(86.338 -340.998)">
    <g id="Group_142" data-name="Group 142" transform="translate(-85.801 341.136)">
      <path id="Path_13" data-name="Path 13" d="M-2195.007,4249.675s41.718,26.613,71.151,24.308,23.274-64.936,47.447-64.936,21.684,120.721,46.748,120.721,26.3-114.042,52.912-114.042,27.019,85.276,50.857,85.276,20.107-96.579,38.528-96.579,12.23,109.684,41.1,111.99,42.827-117.634,54.967-107.366" transform="translate(2195.007 -4203.562)" fill="none" stroke="#e8451e" stroke-width="2"/>
      <path id="Path_21" data-name="Path 21" d="M-1887.438,4330.491a6.221,6.221,0,0,1-3.491-1.1,11.047,11.047,0,0,1-2.849-2.926,36.814,36.814,0,0,1-4.409-9.963c-2.537-8.148-4.461-18.937-6.5-30.358-2.277-12.768-4.631-25.97-7.987-35.946-1.792-5.329-3.692-9.237-5.805-11.946-2.279-2.922-4.729-4.342-7.489-4.342a10.1,10.1,0,0,0-7.146,3.233,31.78,31.78,0,0,0-6.027,8.957c-3.708,7.567-6.7,17.531-9.864,28.079-3.264,10.873-6.638,22.115-10.891,30.546a35.94,35.94,0,0,1-7.284,10.375,16.306,16.306,0,0,1-4.485,3,12.8,12.8,0,0,1-5.16,1.083,10.342,10.342,0,0,1-5.2-1.433,16.856,16.856,0,0,1-4.467-3.92c-2.564-3.09-4.95-7.505-7.295-13.5-4.311-11.016-7.821-25.81-11.217-40.115-3.258-13.726-6.625-27.918-10.622-38.29-2.128-5.522-4.259-9.562-6.516-12.348a14.05,14.05,0,0,0-3.665-3.318,7.564,7.564,0,0,0-3.931-1.125c-5.248,0-9.748,6.075-13.757,18.572-3.669,11.435-6.508,26.922-9.252,41.9-2.693,14.7-5.478,29.893-9.035,41.092-1.932,6.083-3.94,10.562-6.139,13.692a15.227,15.227,0,0,1-3.889,3.989,8.342,8.342,0,0,1-4.675,1.476,13.176,13.176,0,0,1-8-2.647,22.338,22.338,0,0,1-5.79-6.853c-3.262-5.57-5.622-12.9-8.121-20.655-2.65-8.227-5.391-16.735-9.342-23.272a27.446,27.446,0,0,0-6.869-7.977,17.5,17.5,0,0,0-9.392-3.535c-6.614-.519-14.436.423-23.244,2.8a154.076,154.076,0,0,0-22.949,8.418,216.434,216.434,0,0,0-24.429,12.959l-.927-1.453a218.164,218.164,0,0,1,24.648-13.077,155.725,155.725,0,0,1,23.209-8.511c9-2.426,17.014-3.387,23.826-2.854a19.843,19.843,0,0,1,5.562,1.241,19.668,19.668,0,0,1,4.729,2.633,29.112,29.112,0,0,1,7.31,8.464c4.056,6.708,6.827,15.314,9.508,23.635,2.469,7.665,4.8,14.9,7.968,20.312a20.653,20.653,0,0,0,5.328,6.338,11.33,11.33,0,0,0,6.974,2.311c4.951,0,9.224-5.875,13.061-17.958,3.523-11.1,6.3-26.238,8.982-40.881,2.755-15.031,5.6-30.574,9.306-42.115,2.013-6.274,4.113-10.9,6.419-14.131a15.825,15.825,0,0,1,4.08-4.118,8.841,8.841,0,0,1,4.9-1.519,9.355,9.355,0,0,1,4.808,1.363,15.771,15.771,0,0,1,4.128,3.717c2.372,2.93,4.591,7.12,6.784,12.813,4.038,10.479,7.42,24.73,10.691,38.511,3.381,14.249,6.878,28.983,11.145,39.885,2.277,5.816,4.572,10.077,7.016,13.024a15.178,15.178,0,0,0,4,3.525,8.638,8.638,0,0,0,4.341,1.2,12.207,12.207,0,0,0,8.477-3.63,34.286,34.286,0,0,0,6.914-9.886c4.185-8.294,7.537-19.463,10.779-30.264,3.187-10.618,6.2-20.647,9.968-28.342a33.4,33.4,0,0,1,6.377-9.437,14.2,14.2,0,0,1,3.885-2.731,10.611,10.611,0,0,1,4.458-.985,9.441,9.441,0,0,1,4.843,1.343,14.576,14.576,0,0,1,4,3.662c2.235,2.865,4.224,6.94,6.08,12.457,3.4,10.1,5.762,23.363,8.05,36.192,2.027,11.368,3.942,22.1,6.448,30.149,2.676,8.6,5.655,12.774,9.1,12.774,3.257,0,6.03-4.351,8.476-13.3,2.308-8.441,4.06-19.934,5.916-32.1,2.351-15.416,4.782-31.358,8.687-43.937,2.134-6.876,4.483-12.021,7.18-15.729a19.429,19.429,0,0,1,4.845-4.824,12.391,12.391,0,0,1,5.925-2.1,11.8,11.8,0,0,1,6.547,1.442,21.521,21.521,0,0,1,5.873,4.841c3.441,3.877,6.775,9.471,10.194,17.1,6.228,13.893,11.5,31.9,16.15,47.785,2.828,9.66,5.5,18.785,7.964,25.475a54.689,54.689,0,0,0,3.542,8.046c1.36,2.368,2.339,3.073,2.922,3.248a1.271,1.271,0,0,0,1.287-.368l1.113,1.315a2.982,2.982,0,0,1-2.9.7c-1.3-.39-2.583-1.712-3.92-4.039a56.277,56.277,0,0,1-3.665-8.31c-2.486-6.745-5.165-15.9-8-25.585-4.635-15.832-9.889-33.778-16.069-47.564a97.073,97.073,0,0,0-4.791-9.423,46.466,46.466,0,0,0-5.12-7.236,19.845,19.845,0,0,0-5.39-4.461,10.141,10.141,0,0,0-5.6-1.248c-6.752.539-12.13,7.554-16.441,21.443-3.866,12.456-6.288,28.332-8.629,43.686-1.864,12.218-3.624,23.758-5.958,32.295a39.561,39.561,0,0,1-4.087,10.382,10.838,10.838,0,0,1-2.686,3.038A5.64,5.64,0,0,1-1887.438,4330.491Z" transform="translate(2212.312 -4203.424)" fill="#1e1e1c"/>
    </g>
    <g id="Group_6605" data-name="Group 6605" transform="translate(737.634 341.136)">
      <path id="Path_13-2" data-name="Path 13" d="M-2195.007,4249.675s41.718,26.613,71.151,24.308,23.274-64.936,47.447-64.936,21.684,120.721,46.748,120.721,26.3-114.042,52.912-114.042,27.019,85.276,50.857,85.276,20.107-96.579,38.528-96.579,12.23,109.684,41.1,111.99,42.827-117.634,54.967-107.366" transform="translate(2195.007 -4203.562)" fill="none" stroke="#e8451e" stroke-width="2"/>
      <path id="Path_21-2" data-name="Path 21" d="M-1887.438,4330.491a6.221,6.221,0,0,1-3.491-1.1,11.047,11.047,0,0,1-2.849-2.926,36.814,36.814,0,0,1-4.409-9.963c-2.537-8.148-4.461-18.937-6.5-30.358-2.277-12.768-4.631-25.97-7.987-35.946-1.792-5.329-3.692-9.237-5.805-11.946-2.279-2.922-4.729-4.342-7.489-4.342a10.1,10.1,0,0,0-7.146,3.233,31.78,31.78,0,0,0-6.027,8.957c-3.708,7.567-6.7,17.531-9.864,28.079-3.264,10.873-6.638,22.115-10.891,30.546a35.94,35.94,0,0,1-7.284,10.375,16.306,16.306,0,0,1-4.485,3,12.8,12.8,0,0,1-5.16,1.083,10.342,10.342,0,0,1-5.2-1.433,16.856,16.856,0,0,1-4.467-3.92c-2.564-3.09-4.95-7.505-7.295-13.5-4.311-11.016-7.821-25.81-11.217-40.115-3.258-13.726-6.625-27.918-10.622-38.29-2.128-5.522-4.259-9.562-6.516-12.348a14.05,14.05,0,0,0-3.665-3.318,7.564,7.564,0,0,0-3.931-1.125c-5.248,0-9.748,6.075-13.757,18.572-3.669,11.435-6.508,26.922-9.252,41.9-2.693,14.7-5.478,29.893-9.035,41.092-1.932,6.083-3.94,10.562-6.139,13.692a15.227,15.227,0,0,1-3.889,3.989,8.342,8.342,0,0,1-4.675,1.476,13.176,13.176,0,0,1-8-2.647,22.338,22.338,0,0,1-5.79-6.853c-3.262-5.57-5.622-12.9-8.121-20.655-2.65-8.227-5.391-16.735-9.342-23.272a27.446,27.446,0,0,0-6.869-7.977,17.5,17.5,0,0,0-9.392-3.535c-6.614-.519-14.436.423-23.244,2.8a154.076,154.076,0,0,0-22.949,8.418,216.434,216.434,0,0,0-24.429,12.959l-.927-1.453a218.164,218.164,0,0,1,24.648-13.077,155.725,155.725,0,0,1,23.209-8.511c9-2.426,17.014-3.387,23.826-2.854a19.843,19.843,0,0,1,5.562,1.241,19.668,19.668,0,0,1,4.729,2.633,29.112,29.112,0,0,1,7.31,8.464c4.056,6.708,6.827,15.314,9.508,23.635,2.469,7.665,4.8,14.9,7.968,20.312a20.653,20.653,0,0,0,5.328,6.338,11.33,11.33,0,0,0,6.974,2.311c4.951,0,9.224-5.875,13.061-17.958,3.523-11.1,6.3-26.238,8.982-40.881,2.755-15.031,5.6-30.574,9.306-42.115,2.013-6.274,4.113-10.9,6.419-14.131a15.825,15.825,0,0,1,4.08-4.118,8.841,8.841,0,0,1,4.9-1.519,9.355,9.355,0,0,1,4.808,1.363,15.771,15.771,0,0,1,4.128,3.717c2.372,2.93,4.591,7.12,6.784,12.813,4.038,10.479,7.42,24.73,10.691,38.511,3.381,14.249,6.878,28.983,11.145,39.885,2.277,5.816,4.572,10.077,7.016,13.024a15.178,15.178,0,0,0,4,3.525,8.638,8.638,0,0,0,4.341,1.2,12.207,12.207,0,0,0,8.477-3.63,34.286,34.286,0,0,0,6.914-9.886c4.185-8.294,7.537-19.463,10.779-30.264,3.187-10.618,6.2-20.647,9.968-28.342a33.4,33.4,0,0,1,6.377-9.437,14.2,14.2,0,0,1,3.885-2.731,10.611,10.611,0,0,1,4.458-.985,9.441,9.441,0,0,1,4.843,1.343,14.576,14.576,0,0,1,4,3.662c2.235,2.865,4.224,6.94,6.08,12.457,3.4,10.1,5.762,23.363,8.05,36.192,2.027,11.368,3.942,22.1,6.448,30.149,2.676,8.6,5.655,12.774,9.1,12.774,3.257,0,6.03-4.351,8.476-13.3,2.308-8.441,4.06-19.934,5.916-32.1,2.351-15.416,4.782-31.358,8.687-43.937,2.134-6.876,4.483-12.021,7.18-15.729a19.429,19.429,0,0,1,4.845-4.824,12.391,12.391,0,0,1,5.925-2.1,11.8,11.8,0,0,1,6.547,1.442,21.521,21.521,0,0,1,5.873,4.841c3.441,3.877,6.775,9.471,10.194,17.1,6.228,13.893,11.5,31.9,16.15,47.785,2.828,9.66,5.5,18.785,7.964,25.475a54.689,54.689,0,0,0,3.542,8.046c1.36,2.368,2.339,3.073,2.922,3.248a1.271,1.271,0,0,0,1.287-.368l1.113,1.315a2.982,2.982,0,0,1-2.9.7c-1.3-.39-2.583-1.712-3.92-4.039a56.277,56.277,0,0,1-3.665-8.31c-2.486-6.745-5.165-15.9-8-25.585-4.635-15.832-9.889-33.778-16.069-47.564a97.073,97.073,0,0,0-4.791-9.423,46.466,46.466,0,0,0-5.12-7.236,19.845,19.845,0,0,0-5.39-4.461,10.141,10.141,0,0,0-5.6-1.248c-6.752.539-12.13,7.554-16.441,21.443-3.866,12.456-6.288,28.332-8.629,43.686-1.864,12.218-3.624,23.758-5.958,32.295a39.561,39.561,0,0,1-4.087,10.382,10.838,10.838,0,0,1-2.686,3.038A5.64,5.64,0,0,1-1887.438,4330.491Z" transform="translate(2212.312 -4203.424)" fill="#1e1e1c"/>
    </g>
    <g id="Group_143" data-name="Group 143" transform="translate(316.299 341.136)">
      <path id="Path_13-3" data-name="Path 13" d="M-1791.3,4249.675s-41.719,26.613-71.152,24.308-23.274-64.936-47.446-64.936-21.685,120.721-46.748,120.721-26.3-114.042-52.912-114.042S-2036.576,4301-2060.415,4301s-20.107-96.579-38.528-96.579-12.23,109.684-41.1,111.99-42.827-117.634-54.967-107.366" transform="translate(2195.007 -4203.562)" fill="none" stroke="#e8451e" stroke-width="2"/>
      <path id="Path_21-3" data-name="Path 21" d="M-2098.925,4330.491a6.221,6.221,0,0,0,3.491-1.1,11.047,11.047,0,0,0,2.849-2.926,36.808,36.808,0,0,0,4.409-9.963c2.538-8.148,4.462-18.937,6.5-30.358,2.277-12.768,4.631-25.97,7.987-35.946,1.792-5.329,3.692-9.237,5.8-11.946,2.28-2.922,4.73-4.342,7.489-4.342a10.1,10.1,0,0,1,7.146,3.233,31.78,31.78,0,0,1,6.026,8.957c3.709,7.567,6.7,17.531,9.865,28.079,3.263,10.873,6.637,22.115,10.891,30.546a35.94,35.94,0,0,0,7.284,10.375,16.313,16.313,0,0,0,4.485,3,12.8,12.8,0,0,0,5.16,1.083,10.342,10.342,0,0,0,5.2-1.433,16.856,16.856,0,0,0,4.467-3.92c2.564-3.09,4.95-7.505,7.295-13.5,4.311-11.016,7.821-25.81,11.217-40.115,3.258-13.726,6.625-27.918,10.622-38.29,2.128-5.522,4.259-9.562,6.516-12.348a14.05,14.05,0,0,1,3.665-3.318,7.564,7.564,0,0,1,3.931-1.125c5.248,0,9.748,6.075,13.757,18.572,3.669,11.435,6.508,26.922,9.252,41.9,2.693,14.7,5.478,29.893,9.035,41.092,1.932,6.083,3.94,10.562,6.139,13.692a15.231,15.231,0,0,0,3.889,3.989,8.342,8.342,0,0,0,4.675,1.476,13.176,13.176,0,0,0,8-2.647,22.338,22.338,0,0,0,5.79-6.853c3.262-5.57,5.622-12.9,8.121-20.655,2.65-8.227,5.391-16.735,9.342-23.272a27.442,27.442,0,0,1,6.869-7.977,17.5,17.5,0,0,1,9.392-3.535c6.614-.519,14.436.423,23.244,2.8a154.076,154.076,0,0,1,22.949,8.418,216.434,216.434,0,0,1,24.429,12.959l.927-1.453a218.164,218.164,0,0,0-24.648-13.077,155.725,155.725,0,0,0-23.209-8.511c-9-2.426-17.014-3.387-23.826-2.854a19.843,19.843,0,0,0-5.562,1.241,19.668,19.668,0,0,0-4.729,2.633,29.108,29.108,0,0,0-7.31,8.464c-4.056,6.708-6.827,15.314-9.508,23.635-2.469,7.665-4.8,14.9-7.968,20.312a20.653,20.653,0,0,1-5.328,6.338,11.33,11.33,0,0,1-6.974,2.311c-4.951,0-9.224-5.875-13.061-17.958-3.523-11.1-6.3-26.238-8.982-40.881-2.755-15.031-5.6-30.574-9.306-42.115-2.013-6.274-4.112-10.9-6.419-14.131a15.828,15.828,0,0,0-4.08-4.118,8.842,8.842,0,0,0-4.9-1.519,9.355,9.355,0,0,0-4.808,1.363,15.771,15.771,0,0,0-4.128,3.717c-2.372,2.93-4.591,7.12-6.784,12.813-4.038,10.479-7.42,24.73-10.691,38.511-3.381,14.249-6.878,28.983-11.144,39.885-2.277,5.816-4.572,10.077-7.016,13.024a15.178,15.178,0,0,1-4,3.525,8.638,8.638,0,0,1-4.341,1.2,12.208,12.208,0,0,1-8.477-3.63,34.3,34.3,0,0,1-6.914-9.886c-4.184-8.294-7.536-19.463-10.778-30.264-3.187-10.618-6.2-20.647-9.968-28.342a33.4,33.4,0,0,0-6.377-9.437,14.21,14.21,0,0,0-3.884-2.731,10.614,10.614,0,0,0-4.458-.985,9.441,9.441,0,0,0-4.843,1.343,14.577,14.577,0,0,0-4,3.662c-2.235,2.865-4.224,6.94-6.08,12.457-3.4,10.1-5.762,23.363-8.05,36.192-2.028,11.368-3.942,22.1-6.448,30.149-2.676,8.6-5.655,12.774-9.1,12.774-3.258,0-6.03-4.351-8.477-13.3-2.307-8.441-4.06-19.934-5.916-32.1-2.352-15.416-4.782-31.358-8.687-43.937-2.134-6.876-4.483-12.021-7.18-15.729a19.421,19.421,0,0,0-4.845-4.824,12.391,12.391,0,0,0-5.924-2.1,11.806,11.806,0,0,0-6.548,1.442,21.528,21.528,0,0,0-5.873,4.841c-3.441,3.877-6.775,9.471-10.194,17.1-6.228,13.893-11.5,31.9-16.15,47.785-2.828,9.66-5.5,18.785-7.964,25.475a54.682,54.682,0,0,1-3.542,8.046c-1.36,2.368-2.339,3.073-2.921,3.248a1.271,1.271,0,0,1-1.287-.368l-1.113,1.315a2.982,2.982,0,0,0,2.9.7c1.3-.39,2.583-1.712,3.92-4.039a56.274,56.274,0,0,0,3.665-8.31c2.486-6.745,5.165-15.9,8-25.585,4.635-15.832,9.889-33.778,16.068-47.564a97.238,97.238,0,0,1,4.791-9.423,46.483,46.483,0,0,1,5.12-7.236,19.834,19.834,0,0,1,5.391-4.461,10.139,10.139,0,0,1,5.6-1.248c6.752.539,12.13,7.554,16.44,21.443,3.866,12.456,6.287,28.332,8.629,43.686,1.864,12.218,3.623,23.758,5.957,32.295a39.568,39.568,0,0,0,4.087,10.382,10.831,10.831,0,0,0,2.686,3.038A5.639,5.639,0,0,0-2098.925,4330.491Z" transform="translate(2212.153 -4203.424)" fill="#1e1e1c"/>
    </g>
    <g id="Group_6606" data-name="Group 6606" transform="translate(1139.734 341.136)">
      <path id="Path_13-4" data-name="Path 13" d="M-1791.3,4249.675s-41.719,26.613-71.152,24.308-23.274-64.936-47.446-64.936-21.685,120.721-46.748,120.721-26.3-114.042-52.912-114.042S-2036.576,4301-2060.415,4301s-20.107-96.579-38.528-96.579-12.23,109.684-41.1,111.99-42.827-117.634-54.967-107.366" transform="translate(2195.007 -4203.562)" fill="none" stroke="#e8451e" stroke-width="2"/>
      <path id="Path_21-4" data-name="Path 21" d="M-2098.925,4330.491a6.221,6.221,0,0,0,3.491-1.1,11.047,11.047,0,0,0,2.849-2.926,36.808,36.808,0,0,0,4.409-9.963c2.538-8.148,4.462-18.937,6.5-30.358,2.277-12.768,4.631-25.97,7.987-35.946,1.792-5.329,3.692-9.237,5.8-11.946,2.28-2.922,4.73-4.342,7.489-4.342a10.1,10.1,0,0,1,7.146,3.233,31.78,31.78,0,0,1,6.026,8.957c3.709,7.567,6.7,17.531,9.865,28.079,3.263,10.873,6.637,22.115,10.891,30.546a35.94,35.94,0,0,0,7.284,10.375,16.313,16.313,0,0,0,4.485,3,12.8,12.8,0,0,0,5.16,1.083,10.342,10.342,0,0,0,5.2-1.433,16.856,16.856,0,0,0,4.467-3.92c2.564-3.09,4.95-7.505,7.295-13.5,4.311-11.016,7.821-25.81,11.217-40.115,3.258-13.726,6.625-27.918,10.622-38.29,2.128-5.522,4.259-9.562,6.516-12.348a14.05,14.05,0,0,1,3.665-3.318,7.564,7.564,0,0,1,3.931-1.125c5.248,0,9.748,6.075,13.757,18.572,3.669,11.435,6.508,26.922,9.252,41.9,2.693,14.7,5.478,29.893,9.035,41.092,1.932,6.083,3.94,10.562,6.139,13.692a15.231,15.231,0,0,0,3.889,3.989,8.342,8.342,0,0,0,4.675,1.476,13.176,13.176,0,0,0,8-2.647,22.338,22.338,0,0,0,5.79-6.853c3.262-5.57,5.622-12.9,8.121-20.655,2.65-8.227,5.391-16.735,9.342-23.272a27.442,27.442,0,0,1,6.869-7.977,17.5,17.5,0,0,1,9.392-3.535c6.614-.519,14.436.423,23.244,2.8a154.076,154.076,0,0,1,22.949,8.418,216.434,216.434,0,0,1,24.429,12.959l.927-1.453a218.164,218.164,0,0,0-24.648-13.077,155.725,155.725,0,0,0-23.209-8.511c-9-2.426-17.014-3.387-23.826-2.854a19.843,19.843,0,0,0-5.562,1.241,19.668,19.668,0,0,0-4.729,2.633,29.108,29.108,0,0,0-7.31,8.464c-4.056,6.708-6.827,15.314-9.508,23.635-2.469,7.665-4.8,14.9-7.968,20.312a20.653,20.653,0,0,1-5.328,6.338,11.33,11.33,0,0,1-6.974,2.311c-4.951,0-9.224-5.875-13.061-17.958-3.523-11.1-6.3-26.238-8.982-40.881-2.755-15.031-5.6-30.574-9.306-42.115-2.013-6.274-4.112-10.9-6.419-14.131a15.828,15.828,0,0,0-4.08-4.118,8.842,8.842,0,0,0-4.9-1.519,9.355,9.355,0,0,0-4.808,1.363,15.771,15.771,0,0,0-4.128,3.717c-2.372,2.93-4.591,7.12-6.784,12.813-4.038,10.479-7.42,24.73-10.691,38.511-3.381,14.249-6.878,28.983-11.144,39.885-2.277,5.816-4.572,10.077-7.016,13.024a15.178,15.178,0,0,1-4,3.525,8.638,8.638,0,0,1-4.341,1.2,12.208,12.208,0,0,1-8.477-3.63,34.3,34.3,0,0,1-6.914-9.886c-4.184-8.294-7.536-19.463-10.778-30.264-3.187-10.618-6.2-20.647-9.968-28.342a33.4,33.4,0,0,0-6.377-9.437,14.21,14.21,0,0,0-3.884-2.731,10.614,10.614,0,0,0-4.458-.985,9.441,9.441,0,0,0-4.843,1.343,14.577,14.577,0,0,0-4,3.662c-2.235,2.865-4.224,6.94-6.08,12.457-3.4,10.1-5.762,23.363-8.05,36.192-2.028,11.368-3.942,22.1-6.448,30.149-2.676,8.6-5.655,12.774-9.1,12.774-3.258,0-6.03-4.351-8.477-13.3-2.307-8.441-4.06-19.934-5.916-32.1-2.352-15.416-4.782-31.358-8.687-43.937-2.134-6.876-4.483-12.021-7.18-15.729a19.421,19.421,0,0,0-4.845-4.824,12.391,12.391,0,0,0-5.924-2.1,11.806,11.806,0,0,0-6.548,1.442,21.528,21.528,0,0,0-5.873,4.841c-3.441,3.877-6.775,9.471-10.194,17.1-6.228,13.893-11.5,31.9-16.15,47.785-2.828,9.66-5.5,18.785-7.964,25.475a54.682,54.682,0,0,1-3.542,8.046c-1.36,2.368-2.339,3.073-2.921,3.248a1.271,1.271,0,0,1-1.287-.368l-1.113,1.315a2.982,2.982,0,0,0,2.9.7c1.3-.39,2.583-1.712,3.92-4.039a56.274,56.274,0,0,0,3.665-8.31c2.486-6.745,5.165-15.9,8-25.585,4.635-15.832,9.889-33.778,16.068-47.564a97.238,97.238,0,0,1,4.791-9.423,46.483,46.483,0,0,1,5.12-7.236,19.834,19.834,0,0,1,5.391-4.461,10.139,10.139,0,0,1,5.6-1.248c6.752.539,12.13,7.554,16.44,21.443,3.866,12.456,6.287,28.332,8.629,43.686,1.864,12.218,3.623,23.758,5.957,32.295a39.568,39.568,0,0,0,4.087,10.382,10.831,10.831,0,0,0,2.686,3.038A5.639,5.639,0,0,0-2098.925,4330.491Z" transform="translate(2212.153 -4203.424)" fill="#1e1e1c"/>
    </g>
  </g>
</svg>
