<svg xmlns="http://www.w3.org/2000/svg" width="15.661" height="18.026" viewBox="0 0 15.661 18.026">
  <path id="Icon_simple-tiktok" data-name="Icon simple-tiktok" d="M10.594.015C11.578,0,12.554.008,13.531,0a4.678,4.678,0,0,0,1.314,3.132A5.3,5.3,0,0,0,18.03,4.476V7.5a8.039,8.039,0,0,1-3.155-.729,9.28,9.28,0,0,1-1.217-.7c-.008,2.193.008,4.386-.015,6.572a5.737,5.737,0,0,1-1.014,2.959A5.6,5.6,0,0,1,8.19,18.019a5.477,5.477,0,0,1-3.064-.774,5.664,5.664,0,0,1-2.741-4.289c-.015-.376-.023-.751-.008-1.119A5.654,5.654,0,0,1,8.934,6.82c.015,1.112-.03,2.223-.03,3.335a2.577,2.577,0,0,0-3.29,1.592,2.98,2.98,0,0,0-.105,1.209,2.556,2.556,0,0,0,2.629,2.156A2.523,2.523,0,0,0,10.218,13.9a1.733,1.733,0,0,0,.308-.8c.075-1.344.045-2.681.053-4.026.008-3.027-.008-6.046.015-9.066Z" transform="translate(-2.369)" fill="#e8451e"/>
</svg>
